<svg xmlns="http://www.w3.org/2000/svg" version="1.1" xmlns:xlink="http://www.w3.org/1999/xlink" xmlns:svgjs="http://svgjs.dev/svgjs" width="128" height="128" viewBox="0 0 128 128"><g transform="matrix(0.8046875,0,0,0.8046875,12.612792253521128,12.612792253521128)"><svg viewBox="0 0 142 142" data-background-color="#000000" preserveAspectRatio="xMidYMid meet" height="128" width="128" xmlns="http://www.w3.org/2000/svg" xmlns:xlink="http://www.w3.org/1999/xlink"><g id="tight-bounds" transform="matrix(1,0,0,1,-0.15550000000000352,-0.15550000000000352)"><svg viewBox="0 0 142.31066447748242 142.31066447748242" height="142.31066447748242" width="142.31066447748242"><rect width="142.311" height="142.311" fill="url(#4d512114-3fa1-4180-89bc-102697f00f4e)" mask="url(#a45990fe-136c-4c7e-8bca-33d33137ce40)" data-fill-palette-color="tertiary"></rect><g><svg></svg></g><g><svg viewBox="0 0 142.31066447748242 142.31066447748242" height="142.31066447748242" width="142.31066447748242"><g><path d="M0 71.155c0-39.298 31.857-71.155 71.155-71.155 39.298 0 71.155 31.857 71.156 71.155 0 39.298-31.857 71.155-71.156 71.156-39.298 0-71.155-31.857-71.155-71.156zM71.155 139.276c37.622 0 68.121-30.499 68.121-68.121 0-37.622-30.499-68.121-68.121-68.121-37.622 0-68.121 30.499-68.121 68.121 0 37.622 30.499 68.121 68.121 68.121z" data-fill-palette-color="tertiary" fill="url(#4d512114-3fa1-4180-89bc-102697f00f4e)" stroke="transparent"></path><ellipse rx="68.30911894919156" ry="68.30911894919156" cx="71.15533223874121" cy="71.15533223874121" fill="url(#4d512114-3fa1-4180-89bc-102697f00f4e)" stroke="transparent" stroke-width="0" fill-opacity="1" data-fill-palette-color="tertiary"></ellipse></g><g transform="matrix(1,0,0,1,29.989108276746492,54.33175812921767)"><svg viewBox="0 0 82.33244792398943 33.64714821904708" height="33.64714821904708" width="82.33244792398943"><g><svg viewBox="0 0 82.33244792398943 33.64714821904708" height="33.64714821904708" width="82.33244792398943"><g><svg viewBox="0 0 82.33244792398943 33.64714821904708" height="33.64714821904708" width="82.33244792398943"><g id="textblocktransform"><svg viewBox="0 0 82.33244792398943 33.64714821904708" height="33.64714821904708" width="82.33244792398943" id="textblock"><g><svg viewBox="0 0 82.33244792398943 33.64714821904708" height="33.64714821904708" width="82.33244792398943"><g transform="matrix(1,0,0,1,0,0)"><svg width="82.33244792398943" viewBox="0.34375 -39.95 98.85625 40.400000000000006" height="33.64714821904708" data-palette-color="#000000"><path d="M28.15-1.2L17.15-34.8 6.2-1.2 6.2-1.25Q5.9-0.5 5.38-0.03 4.85 0.45 4.1 0.45L4.1 0.45Q3.7 0.45 3.33 0.38 2.95 0.3 2.55 0.2L2.55 0.2 2.6 0.2Q-0.25-0.7 0.5-3L0.5-3 11.9-37.65Q12.15-38.45 12.78-39 13.4-39.55 14.25-39.65L14.25-39.65Q15.1-39.8 15.9-39.88 16.7-39.95 17.15-39.95L17.15-39.95Q17.6-39.95 18.4-39.88 19.2-39.8 20.05-39.7L20.05-39.7Q20.75-39.6 21.43-38.95 22.1-38.3 22.45-37.65L22.45-37.65Q25.25-29.05 28.13-20.33 31-11.6 33.8-3L33.8-3Q34.5-0.7 31.7 0.2L31.7 0.2Q31.3 0.3 30.98 0.38 30.65 0.45 30.25 0.45L30.25 0.45Q29.55 0.45 28.98-0.03 28.4-0.5 28.15-1.25L28.15-1.25 28.15-1.2ZM20.9-12L20.9-12Q20.9-10.4 19.78-9.28 18.65-8.15 17.05-8.15L17.05-8.15Q15.45-8.15 14.35-9.28 13.25-10.4 13.25-12L13.25-12Q13.25-13.6 14.35-14.73 15.45-15.85 17.05-15.85L17.05-15.85Q18.65-15.85 19.78-14.73 20.9-13.6 20.9-12ZM58.85-8.4L58.85-18.05Q58.85-20.5 61.85-20.5L61.85-20.5Q64.8-20.5 64.8-18.15L64.8-18.15 64.8-8Q64.8-3.95 62.1-1.95L62.1-1.95Q60.8-1 59.42-0.48 58.05 0.05 56.75 0.05L56.75 0.05 46.35 0.05Q45.05 0.05 43.67-0.48 42.3-1 41-1.95L41-1.95Q39.7-2.95 39-4.42 38.3-5.9 38.3-8L38.3-8 38.3-31.75Q38.3-33.8 39.02-35.3 39.75-36.8 41-37.75L41-37.75 40.95-37.75Q42.25-38.6 43.65-39.15 45.05-39.7 46.35-39.7L46.35-39.7 56.25-39.7Q57.55-39.7 58.95-39.15 60.35-38.6 61.65-37.75L61.65-37.75 61.6-37.75Q64.25-35.8 64.25-31.75L64.25-31.75 64.25-28.3Q64.25-25.9 61.3-25.9L61.3-25.9Q58.35-25.9 58.35-28.3L58.35-28.3 58.35-31.3Q58.35-32.55 57.6-33.6 56.85-34.65 55-34.65L55-34.65 47.65-34.65Q45.75-34.65 45-33.6 44.25-32.55 44.25-31.3L44.25-31.3 44.25-8.4Q44.25-7.75 44.42-7.15 44.6-6.55 45-6.08 45.4-5.6 46.05-5.3 46.7-5 47.65-5L47.65-5 55.5-5Q57.35-5 58.1-6.05 58.85-7.1 58.85-8.4L58.85-8.4ZM56.5-18.6L56.5-18.6Q56.5-17.75 56.17-16.98 55.85-16.2 55.27-15.65 54.7-15.1 53.95-14.78 53.2-14.45 52.3-14.45L52.3-14.45Q50.6-14.45 49.4-15.65 48.2-16.85 48.2-18.6L48.2-18.6Q48.2-20.3 49.4-21.5 50.6-22.7 52.3-22.7L52.3-22.7Q53.2-22.7 53.95-22.38 54.7-22.05 55.27-21.5 55.85-20.95 56.17-20.2 56.5-19.45 56.5-18.6ZM93.25-8.4L93.25-14.75Q93.25-15.9 92.4-16.98 91.55-18.05 89.4-18.2L89.4-18.2Q88-16.5 86-16.5L86-16.5Q84.3-16.5 83.09-17.7 81.9-18.9 81.9-20.65L81.9-20.65Q81.9-22.4 83.09-23.6 84.3-24.8 86-24.8L86-24.8Q86.9-24.8 87.77-24.3 88.65-23.8 89.34-23.1L89.34-23.1Q90.45-23.15 91.05-23.45 91.65-23.75 91.92-24.18 92.2-24.6 92.25-25.15 92.3-25.7 92.3-26.25L92.3-26.25 92.3-31.3Q92.3-32.55 91.52-33.6 90.75-34.65 88.9-34.65L88.9-34.65 78.45-34.65 78.4-1.65Q78.4-0.65 77.47-0.13 76.55 0.4 75.45 0.4L75.45 0.4Q72.5 0.4 72.5-2L72.5-2 72.5-36.7Q72.5-38.5 73.42-39.1 74.34-39.7 75.65-39.7L75.65-39.7 90.15-39.7Q91.45-39.7 92.92-39.2 94.4-38.7 95.7-37.85L95.7-37.85 95.65-37.85Q96.95-36.9 97.57-35.35 98.2-33.8 98.2-31.75L98.2-31.75 98.2-26.1Q98.2-24.1 97.34-22.83 96.5-21.55 95.55-20.8L95.55-20.8Q96.2-20.4 96.8-19.98 97.4-19.55 97.8-19.05L97.8-19.05Q98.45-18.35 98.82-17.4 99.2-16.45 99.2-15.15L99.2-15.15 99.2-8Q99.2-3.9 96-1.95L96-1.95Q94.4-0.95 92.97-0.45 91.55 0.05 90.15 0.05L90.15 0.05 82.75 0.05Q81.9 0.05 81.42-0.65 80.95-1.35 80.95-2.5L80.95-2.5Q80.95-5 83.05-5L83.05-5 89.9-5Q91.75-5 92.5-6.05 93.25-7.1 93.25-8.4L93.25-8.4Z" opacity="1" transform="matrix(1,0,0,1,0,0)" fill="#000000" class="wordmark-text-0" data-fill-palette-color="quaternary" id="text-0"></path></svg></g></svg></g></svg></g></svg></g><g></g></svg></g></svg></g></svg></g><defs></defs><mask id="a45990fe-136c-4c7e-8bca-33d33137ce40"><g id="SvgjsG4973"><svg viewBox="0 0 142.31066447748242 142.31066447748242" height="142.31066447748242" width="142.31066447748242"><g><svg></svg></g><g><svg viewBox="0 0 142.31066447748242 142.31066447748242" height="142.31066447748242" width="142.31066447748242"><g><path d="M0 71.155c0-39.298 31.857-71.155 71.155-71.155 39.298 0 71.155 31.857 71.156 71.155 0 39.298-31.857 71.155-71.156 71.156-39.298 0-71.155-31.857-71.155-71.156zM71.155 139.276c37.622 0 68.121-30.499 68.121-68.121 0-37.622-30.499-68.121-68.121-68.121-37.622 0-68.121 30.499-68.121 68.121 0 37.622 30.499 68.121 68.121 68.121z" fill="white" stroke="transparent"></path><ellipse rx="68.30911894919156" ry="68.30911894919156" cx="71.15533223874121" cy="71.15533223874121" fill="white" stroke="transparent" stroke-width="0" fill-opacity="1"></ellipse></g><g transform="matrix(1,0,0,1,29.989108276746492,54.33175812921767)"><svg viewBox="0 0 82.33244792398943 33.64714821904708" height="33.64714821904708" width="82.33244792398943"><g><svg viewBox="0 0 82.33244792398943 33.64714821904708" height="33.64714821904708" width="82.33244792398943"><g><svg viewBox="0 0 82.33244792398943 33.64714821904708" height="33.64714821904708" width="82.33244792398943"><g id="SvgjsG4972"><svg viewBox="0 0 82.33244792398943 33.64714821904708" height="33.64714821904708" width="82.33244792398943" id="SvgjsSvg4971"><g><svg viewBox="0 0 82.33244792398943 33.64714821904708" height="33.64714821904708" width="82.33244792398943"><g transform="matrix(1,0,0,1,0,0)"><svg width="82.33244792398943" viewBox="0.34375 -39.95 98.85625 40.400000000000006" height="33.64714821904708" data-palette-color="#000000"><path d="M28.15-1.2L17.15-34.8 6.2-1.2 6.2-1.25Q5.9-0.5 5.38-0.03 4.85 0.45 4.1 0.45L4.1 0.45Q3.7 0.45 3.33 0.38 2.95 0.3 2.55 0.2L2.55 0.2 2.6 0.2Q-0.25-0.7 0.5-3L0.5-3 11.9-37.65Q12.15-38.45 12.78-39 13.4-39.55 14.25-39.65L14.25-39.65Q15.1-39.8 15.9-39.88 16.7-39.95 17.15-39.95L17.15-39.95Q17.6-39.95 18.4-39.88 19.2-39.8 20.05-39.7L20.05-39.7Q20.75-39.6 21.43-38.95 22.1-38.3 22.45-37.65L22.45-37.65Q25.25-29.05 28.13-20.33 31-11.6 33.8-3L33.8-3Q34.5-0.7 31.7 0.2L31.7 0.2Q31.3 0.3 30.98 0.38 30.65 0.45 30.25 0.45L30.25 0.45Q29.55 0.45 28.98-0.03 28.4-0.5 28.15-1.25L28.15-1.25 28.15-1.2ZM20.9-12L20.9-12Q20.9-10.4 19.78-9.28 18.65-8.15 17.05-8.15L17.05-8.15Q15.45-8.15 14.35-9.28 13.25-10.4 13.25-12L13.25-12Q13.25-13.6 14.35-14.73 15.45-15.85 17.05-15.85L17.05-15.85Q18.65-15.85 19.78-14.73 20.9-13.6 20.9-12ZM58.85-8.4L58.85-18.05Q58.85-20.5 61.85-20.5L61.85-20.5Q64.8-20.5 64.8-18.15L64.8-18.15 64.8-8Q64.8-3.95 62.1-1.95L62.1-1.95Q60.8-1 59.42-0.48 58.05 0.05 56.75 0.05L56.75 0.05 46.35 0.05Q45.05 0.05 43.67-0.48 42.3-1 41-1.95L41-1.95Q39.7-2.95 39-4.42 38.3-5.9 38.3-8L38.3-8 38.3-31.75Q38.3-33.8 39.02-35.3 39.75-36.8 41-37.75L41-37.75 40.95-37.75Q42.25-38.6 43.65-39.15 45.05-39.7 46.35-39.7L46.35-39.7 56.25-39.7Q57.55-39.7 58.95-39.15 60.35-38.6 61.65-37.75L61.65-37.75 61.6-37.75Q64.25-35.8 64.25-31.75L64.25-31.75 64.25-28.3Q64.25-25.9 61.3-25.9L61.3-25.9Q58.35-25.9 58.35-28.3L58.35-28.3 58.35-31.3Q58.35-32.55 57.6-33.6 56.85-34.65 55-34.65L55-34.65 47.65-34.65Q45.75-34.65 45-33.6 44.25-32.55 44.25-31.3L44.25-31.3 44.25-8.4Q44.25-7.75 44.42-7.15 44.6-6.55 45-6.08 45.4-5.6 46.05-5.3 46.7-5 47.65-5L47.65-5 55.5-5Q57.35-5 58.1-6.05 58.85-7.1 58.85-8.4L58.85-8.4ZM56.5-18.6L56.5-18.6Q56.5-17.75 56.17-16.98 55.85-16.2 55.27-15.65 54.7-15.1 53.95-14.78 53.2-14.45 52.3-14.45L52.3-14.45Q50.6-14.45 49.4-15.65 48.2-16.85 48.2-18.6L48.2-18.6Q48.2-20.3 49.4-21.5 50.6-22.7 52.3-22.7L52.3-22.7Q53.2-22.7 53.95-22.38 54.7-22.05 55.27-21.5 55.85-20.95 56.17-20.2 56.5-19.45 56.5-18.6ZM93.25-8.4L93.25-14.75Q93.25-15.9 92.4-16.98 91.55-18.05 89.4-18.2L89.4-18.2Q88-16.5 86-16.5L86-16.5Q84.3-16.5 83.09-17.7 81.9-18.9 81.9-20.65L81.9-20.65Q81.9-22.4 83.09-23.6 84.3-24.8 86-24.8L86-24.8Q86.9-24.8 87.77-24.3 88.65-23.8 89.34-23.1L89.34-23.1Q90.45-23.15 91.05-23.45 91.65-23.75 91.92-24.18 92.2-24.6 92.25-25.15 92.3-25.7 92.3-26.25L92.3-26.25 92.3-31.3Q92.3-32.55 91.52-33.6 90.75-34.65 88.9-34.65L88.9-34.65 78.45-34.65 78.4-1.65Q78.4-0.65 77.47-0.13 76.55 0.4 75.45 0.4L75.45 0.4Q72.5 0.4 72.5-2L72.5-2 72.5-36.7Q72.5-38.5 73.42-39.1 74.34-39.7 75.65-39.7L75.65-39.7 90.15-39.7Q91.45-39.7 92.92-39.2 94.4-38.7 95.7-37.85L95.7-37.85 95.65-37.85Q96.95-36.9 97.57-35.35 98.2-33.8 98.2-31.75L98.2-31.75 98.2-26.1Q98.2-24.1 97.34-22.83 96.5-21.55 95.55-20.8L95.55-20.8Q96.2-20.4 96.8-19.98 97.4-19.55 97.8-19.05L97.8-19.05Q98.45-18.35 98.82-17.4 99.2-16.45 99.2-15.15L99.2-15.15 99.2-8Q99.2-3.9 96-1.95L96-1.95Q94.4-0.95 92.97-0.45 91.55 0.05 90.15 0.05L90.15 0.05 82.75 0.05Q81.9 0.05 81.42-0.65 80.95-1.35 80.95-2.5L80.95-2.5Q80.95-5 83.05-5L83.05-5 89.9-5Q91.75-5 92.5-6.05 93.25-7.1 93.25-8.4L93.25-8.4Z" opacity="1" transform="matrix(1,0,0,1,0,0)" fill="black" class="wordmark-text-0" id="SvgjsPath4970"></path></svg></g></svg></g></svg></g></svg></g><g></g></svg></g></svg></g></svg></g><defs><mask></mask></defs></svg><rect width="142.31066447748242" height="142.31066447748242" fill="black" stroke="none" visibility="hidden"></rect></g></mask><linearGradient x1="0.054" x2="0.941" y1="0.5" y2="0.5" id="4d512114-3fa1-4180-89bc-102697f00f4e"><stop stop-color="#9c7945" offset="0"></stop><stop stop-color="#faf3aa" offset="0.498"></stop><stop stop-color="#9c7945" offset="1"></stop></linearGradient></svg><rect width="142.31066447748242" height="142.31066447748242" fill="none" stroke="none" visibility="hidden"></rect></g></svg></g></svg>