<svg xmlns="http://www.w3.org/2000/svg" version="1.1" xmlns:xlink="http://www.w3.org/1999/xlink" xmlns:svgjs="http://svgjs.dev/svgjs" width="2000" height="1999" viewBox="0 0 2000 1999"><g transform="matrix(1,0,0,1,-0.4314868804665366,-0.4312711370263287)"><svg viewBox="0 0 343 343" data-background-color="#000000" preserveAspectRatio="xMidYMid meet" height="1999" width="2000" xmlns="http://www.w3.org/2000/svg" xmlns:xlink="http://www.w3.org/1999/xlink"><g id="tight-bounds" transform="matrix(1,0,0,1,0.07400000000001228,0.07400000000001228)"><svg viewBox="0 0 342.8515585177538 342.8515585177538" height="342.8515585177538" width="342.8515585177538"><rect width="342.852" height="342.852" fill="url(#f95937c7-16a7-4a71-883c-7572c868ec62)" mask="url(#77febca2-9935-47c8-b16d-6b218b445396)" data-fill-palette-color="tertiary"></rect><g><svg></svg></g><g><svg viewBox="0 0 342.8515585177538 342.8515585177538" height="342.8515585177538" width="342.8515585177538"><g><path d="M0 171.426c0-94.676 76.75-171.426 171.426-171.426 94.676 0 171.426 76.75 171.426 171.426 0 94.676-76.75 171.426-171.426 171.426-94.676 0-171.426-76.75-171.426-171.426zM171.426 339.055c92.579 0 167.629-75.05 167.629-167.629 0-92.579-75.05-167.629-167.629-167.63-92.579 0-167.629 75.05-167.63 167.63 0 92.579 75.05 167.629 167.63 167.629z" data-fill-palette-color="tertiary" fill="url(#f95937c7-16a7-4a71-883c-7572c868ec62)" stroke="transparent"></path><ellipse rx="164.56874808852183" ry="164.56874808852183" cx="171.4257792588769" cy="171.4257792588769" fill="url(#f95937c7-16a7-4a71-883c-7572c868ec62)" stroke="transparent" stroke-width="0" fill-opacity="1" data-fill-palette-color="tertiary"></ellipse></g><g transform="matrix(1,0,0,1,64.84655864529836,94.05711609763041)"><svg viewBox="0 0 213.15844122715708 154.73732632249298" height="154.73732632249298" width="213.15844122715708"><g><svg viewBox="0 0 213.15844122715708 154.73732632249298" height="154.73732632249298" width="213.15844122715708"><g><svg viewBox="0 0 213.15844122715714 154.737326322493" height="154.73732632249298" width="213.15844122715708"><g><svg viewBox="0 0 213.15844122715714 154.737326322493" height="154.737326322493" width="213.15844122715714"><g id="textblocktransform"><svg viewBox="0 0 213.15844122715714 154.737326322493" height="154.737326322493" width="213.15844122715714" id="textblock"><g><svg viewBox="0 0 213.15844122715714 135.5301887201601" height="135.5301887201601" width="213.15844122715714"><g transform="matrix(1,0,0,1,0,0)"><svg width="213.15844122715714" viewBox="0.3999970000399987 -40.15 207.55000299996 128.7" height="135.5301887201601" data-palette-color="#000000"><svg></svg><svg></svg><svg></svg><g class="wordmark-text-0" data-fill-palette-color="quaternary" id="text-0"><path d="M28.15-1.2l-11-33.6-10.95 33.6v-0.05c-0.2 0.5-0.473 0.907-0.82 1.22-0.353 0.32-0.78 0.48-1.28 0.48v0c-0.267 0-0.523-0.023-0.77-0.07-0.253-0.053-0.513-0.113-0.78-0.18v0h0.05c-1.9-0.6-2.6-1.667-2.1-3.2v0l11.4-34.65c0.167-0.533 0.46-0.983 0.88-1.35 0.413-0.367 0.903-0.583 1.47-0.65v0c0.567-0.1 1.117-0.177 1.65-0.23 0.533-0.047 0.95-0.07 1.25-0.07v0c0.3 0 0.717 0.023 1.25 0.07 0.533 0.053 1.083 0.113 1.65 0.18v0c0.467 0.067 0.927 0.317 1.38 0.75 0.447 0.433 0.787 0.867 1.02 1.3v0c1.867 5.733 3.76 11.507 5.68 17.32 1.913 5.82 3.803 11.597 5.67 17.33v0c0.467 1.533-0.233 2.6-2.1 3.2v0c-0.267 0.067-0.507 0.127-0.72 0.18-0.22 0.047-0.463 0.07-0.73 0.07v0c-0.467 0-0.89-0.16-1.27-0.48-0.387-0.313-0.663-0.72-0.83-1.22v0zM20.9-12v0c0 1.067-0.373 1.973-1.12 2.72-0.753 0.753-1.663 1.13-2.73 1.13v0c-1.067 0-1.967-0.377-2.7-1.13-0.733-0.747-1.1-1.653-1.1-2.72v0c0-1.067 0.367-1.977 1.1-2.73 0.733-0.747 1.633-1.12 2.7-1.12v0c1.067 0 1.977 0.373 2.73 1.12 0.747 0.753 1.12 1.663 1.12 2.73zM53.35-1.95v-19.8c0-0.433-0.067-0.86-0.2-1.28-0.133-0.413-0.3-0.803-0.5-1.17v0c-0.433-0.8-1.333-1.2-2.7-1.2v0h-3.2c-1.367 0-2.283 0.4-2.75 1.2v0c-0.4 0.767-0.6 1.583-0.6 2.45v0 19.8c0 1.567-0.917 2.35-2.75 2.35v0c-1.9 0-2.85-0.783-2.85-2.35v0-20.25c0-2.733 0.9-4.733 2.7-6v0c1.833-1.267 3.617-1.9 5.35-1.9v0h5.05c0.767 0 1.617 0.15 2.55 0.45 0.933 0.3 1.833 0.767 2.7 1.4v0c0.833-0.633 1.71-1.1 2.63-1.4 0.913-0.3 1.787-0.45 2.62-0.45v0h5c1.767 0 3.533 0.633 5.3 1.9v0c1.833 1.233 2.75 3.233 2.75 6v0 20.25c0 1.567-0.933 2.35-2.8 2.35v0c-1.867 0-2.8-0.783-2.8-2.35v0-19.8c0-0.433-0.05-0.867-0.15-1.3-0.1-0.433-0.283-0.833-0.55-1.2v0l0.05 0.05c-0.267-0.433-0.6-0.743-1-0.93-0.4-0.18-0.983-0.27-1.75-0.27v0h-3.15c-1.4 0-2.317 0.4-2.75 1.2v0c-0.433 0.733-0.65 1.55-0.65 2.45v0 19.8c0 1.567-0.917 2.35-2.75 2.35v0c-1.867 0-2.8-0.783-2.8-2.35zM94.65 0h-6.55c-1.033 0-2.017-0.143-2.95-0.43-0.933-0.28-1.833-0.687-2.7-1.22v0 0.05c-1.633-1.033-2.45-2.933-2.45-5.7v0-2.45c0-1.367 0.24-2.56 0.72-3.58 0.487-1.013 1.163-1.82 2.03-2.42v0h-0.05c0.833-0.567 1.717-0.993 2.65-1.28 0.933-0.28 1.833-0.42 2.7-0.42v0h11.05v-4.65c0-0.833-0.257-1.593-0.77-2.28-0.52-0.68-1.397-1.02-2.63-1.02v0h-5.85c-1.267 0-2.143 0.307-2.63 0.92-0.48 0.62-0.72 1.347-0.72 2.18v0 0.4c0 1.733-0.933 2.6-2.8 2.6v0c-1.867 0-2.8-0.867-2.8-2.6v0-0.45c0-1.367 0.243-2.517 0.73-3.45 0.48-0.933 1.137-1.717 1.97-2.35v0h-0.05c0.867-0.567 1.777-1.033 2.73-1.4 0.947-0.367 1.853-0.55 2.72-0.55v0h7.6c0.833 0 1.727 0.183 2.68 0.55 0.947 0.367 1.837 0.833 2.67 1.4v0h-0.05c0.867 0.633 1.533 1.457 2 2.47 0.467 1.02 0.7 2.197 0.7 3.53v0 20.05c0 1.6-0.917 2.4-2.75 2.4v0c-0.367 0-0.707-0.017-1.02-0.05-0.32-0.033-0.607-0.127-0.86-0.28-0.247-0.147-0.443-0.363-0.59-0.65-0.153-0.28-0.23-0.653-0.23-1.12v0l-0.05-10.95h-10.1c-0.733 0-1.3 0.083-1.7 0.25-0.4 0.167-0.717 0.433-0.95 0.8v0c-0.267 0.567-0.457 1.007-0.57 1.32-0.12 0.32-0.18 0.68-0.18 1.08v0 1.95c0 0.867 0.26 1.523 0.78 1.97 0.513 0.453 1.403 0.68 2.67 0.68v0h5.6c1.233 0 1.85 0.783 1.85 2.35v0c0 0.667-0.15 1.223-0.45 1.67-0.3 0.453-0.767 0.68-1.4 0.68zM116.55-21.75v19.65c0 1.6-0.917 2.4-2.75 2.4v0c-1.833 0-2.75-0.8-2.75-2.4v0-20.1c0-1.367 0.217-2.55 0.65-3.55 0.433-1 1.117-1.817 2.05-2.45v0c1.767-1.267 3.533-1.9 5.3-1.9v0h8.05c1.7 0 3.467 0.633 5.3 1.9v0c1.8 1.267 2.7 3.267 2.7 6v0 20.1c0 1.6-0.917 2.4-2.75 2.4v0c-1.833 0-2.75-0.8-2.75-2.4v0-19.65c0-0.867-0.267-1.7-0.8-2.5v0l0.05 0.05c-0.433-0.8-1.317-1.2-2.65-1.2v0h-6.25c-1.367 0-2.267 0.4-2.7 1.2v0c-0.467 0.7-0.7 1.517-0.7 2.45zM165.6-28v20.05c0 1.333-0.233 2.517-0.7 3.55-0.467 1.033-1.133 1.867-2 2.5v0h0.05c-0.833 0.567-1.717 1.023-2.65 1.37-0.933 0.353-1.833 0.53-2.7 0.53v0h-8.05c-0.833 0-1.723-0.177-2.67-0.53-0.953-0.347-1.847-0.803-2.68-1.37v0h0.05c-0.867-0.633-1.533-1.467-2-2.5-0.467-1.033-0.7-2.217-0.7-3.55v0-20.05c0-1.6 0.917-2.4 2.75-2.4v0c1.833 0 2.75 0.8 2.75 2.4v0 19.65c0 0.933 0.233 1.75 0.7 2.45v0c0.433 0.8 1.333 1.2 2.7 1.2v0h6.25c1.333 0 2.217-0.4 2.65-1.2v0l-0.05 0.05c0.533-0.8 0.8-1.633 0.8-2.5v0-19.65c0-1.6 0.917-2.4 2.75-2.4v0c1.833 0 2.75 0.8 2.75 2.4zM177.35-22.15v14.15c0 0.8 0.26 1.55 0.78 2.25 0.513 0.7 1.387 1.05 2.62 1.05v0h6.25c1.233 0 2.11-0.31 2.63-0.93 0.513-0.613 0.77-1.32 0.77-2.12v0-0.55c0-1.567 0.917-2.35 2.75-2.35v0c1.833 0 2.75 0.783 2.75 2.35v0 0.6c0 1.4-0.223 2.55-0.67 3.45-0.453 0.9-1.13 1.683-2.03 2.35v0c-1.767 1.267-3.533 1.9-5.3 1.9v0h-8.4c-1.767 0-3.483-0.633-5.15-1.9v0c-0.8-0.667-1.417-1.507-1.85-2.52-0.433-1.02-0.65-2.197-0.65-3.53v0-14.25c0-2.7 0.833-4.7 2.5-6v0c0.833-0.6 1.693-1.077 2.58-1.43 0.88-0.347 1.737-0.52 2.57-0.52v0h8.4c0.8 0 1.683 0.157 2.65 0.47 0.967 0.32 1.867 0.747 2.7 1.28v0c0.8 0.567 1.443 1.35 1.93 2.35 0.48 1 0.72 2.183 0.72 3.55v0 6.75c0 0.767-0.223 1.45-0.67 2.05-0.453 0.6-1.28 0.9-2.48 0.9v0h-10.8c-1.2 0-1.833-0.783-1.9-2.35v0c0-1.567 0.633-2.35 1.9-2.35v0h8.5l-0.05-4.65c0-0.833-0.257-1.593-0.77-2.28-0.52-0.68-1.397-1.02-2.63-1.02v0h-6.25c-1.233 0-2.107 0.34-2.62 1.02-0.52 0.687-0.78 1.447-0.78 2.28zM207.95-37.8v35.85c0 1.567-0.917 2.35-2.75 2.35v0c-1.867 0-2.8-0.783-2.8-2.35v0-35.85c0-1.567 0.933-2.35 2.8-2.35v0c1.833 0 2.75 0.783 2.75 2.35z" fill="#000000" fill-rule="nonzero" stroke="none" stroke-width="1" stroke-linecap="butt" stroke-linejoin="miter" stroke-miterlimit="10" stroke-dasharray="" stroke-dashoffset="0" font-family="none" font-weight="none" font-size="none" text-anchor="none" style="mix-blend-mode: normal" data-fill-palette-color="quaternary" opacity="1"></path><path d="M24.55 35.6v-9.65c0-1.633 1-2.45 3-2.45v0c1.967 0 2.95 0.783 2.95 2.35v0 10.15c0 2.7-0.9 4.717-2.7 6.05v0c-0.867 0.633-1.757 1.123-2.67 1.47-0.92 0.353-1.813 0.53-2.68 0.53v0h-10.4c-0.867 0-1.757-0.177-2.67-0.53-0.92-0.347-1.813-0.837-2.68-1.47v0c-0.867-0.667-1.533-1.49-2-2.47-0.467-0.987-0.7-2.18-0.7-3.58v0-23.75c0-1.367 0.243-2.55 0.73-3.55 0.48-1 1.137-1.817 1.97-2.45v0h-0.05c0.867-0.567 1.767-1.033 2.7-1.4 0.933-0.367 1.833-0.55 2.7-0.55v0h9.9c0.867 0 1.767 0.183 2.7 0.55 0.933 0.367 1.833 0.833 2.7 1.4v0h-0.05c1.767 1.3 2.65 3.3 2.65 6v0 3.45c0 1.6-0.983 2.4-2.95 2.4v0c-1.967 0-2.95-0.8-2.95-2.4v0-3c0-0.833-0.25-1.6-0.75-2.3-0.5-0.7-1.367-1.05-2.6-1.05v0h-7.35c-1.267 0-2.15 0.35-2.65 1.05-0.5 0.7-0.75 1.467-0.75 2.3v0 22.9c0 0.433 0.06 0.85 0.18 1.25 0.113 0.4 0.303 0.757 0.57 1.07 0.267 0.32 0.617 0.58 1.05 0.78 0.433 0.2 0.967 0.3 1.6 0.3v0h7.85c1.233 0 2.1-0.35 2.6-1.05 0.5-0.7 0.75-1.483 0.75-2.35zM22.2 25.4v0c0 0.567-0.107 1.107-0.32 1.62-0.22 0.52-0.52 0.963-0.9 1.33-0.387 0.367-0.83 0.657-1.33 0.87-0.5 0.22-1.05 0.33-1.65 0.33v0c-1.133 0-2.1-0.4-2.9-1.2-0.8-0.8-1.2-1.783-1.2-2.95v0c0-1.133 0.4-2.1 1.2-2.9 0.8-0.8 1.767-1.2 2.9-1.2v0c0.6 0 1.15 0.107 1.65 0.32 0.5 0.22 0.943 0.513 1.33 0.88 0.38 0.367 0.68 0.8 0.9 1.3 0.213 0.5 0.32 1.033 0.32 1.6zM43.25 21.85v14.15c0 0.8 0.26 1.55 0.78 2.25 0.513 0.7 1.387 1.05 2.62 1.05v0h6.25c1.233 0 2.11-0.31 2.63-0.93 0.513-0.613 0.77-1.32 0.77-2.12v0-0.55c0-1.567 0.917-2.35 2.75-2.35v0c1.833 0 2.75 0.783 2.75 2.35v0 0.6c0 1.4-0.223 2.55-0.67 3.45-0.453 0.9-1.13 1.683-2.03 2.35v0c-1.767 1.267-3.533 1.9-5.3 1.9v0h-8.4c-1.767 0-3.483-0.633-5.15-1.9v0c-0.8-0.667-1.417-1.507-1.85-2.52-0.433-1.02-0.65-2.197-0.65-3.53v0-14.25c0-2.7 0.833-4.7 2.5-6v0c0.833-0.6 1.693-1.077 2.58-1.43 0.88-0.347 1.737-0.52 2.57-0.52v0h8.4c0.8 0 1.683 0.157 2.65 0.47 0.967 0.32 1.867 0.747 2.7 1.28v0c0.8 0.567 1.443 1.35 1.93 2.35 0.48 1 0.72 2.183 0.72 3.55v0 6.75c0 0.767-0.223 1.45-0.67 2.05-0.453 0.6-1.28 0.9-2.48 0.9v0h-10.8c-1.2 0-1.833-0.783-1.9-2.35v0c0-1.567 0.633-2.35 1.9-2.35v0h8.5l-0.05-4.65c0-0.833-0.257-1.593-0.77-2.28-0.52-0.68-1.397-1.02-2.63-1.02v0h-6.25c-1.233 0-2.107 0.34-2.62 1.02-0.52 0.687-0.78 1.447-0.78 2.28zM78.85 18.6h-4.15v18.2c0 0.867 0.183 1.533 0.55 2 0.367 0.467 1.15 0.7 2.35 0.7v0h1.3c1.3 0 1.917 0.767 1.85 2.3v0c0 1.567-0.617 2.35-1.85 2.35v0h-1.65c-1.067 0-2.067-0.143-3-0.43-0.933-0.28-1.833-0.687-2.7-1.22v0 0.05c-1.633-1.067-2.45-2.967-2.45-5.7v0-18.25h-1.95c-1.2 0-1.833-0.783-1.9-2.35v0c0-1.567 0.633-2.35 1.9-2.35v0h1.95v-5.35c0-1.6 0.95-2.4 2.85-2.4v0c1.833 0 2.75 0.8 2.75 2.4v0 5.35h4.15c1.3 0 1.917 0.783 1.85 2.35v0c0 1.567-0.617 2.35-1.85 2.35zM99.2 44h-6.55c-1.033 0-2.017-0.143-2.95-0.43-0.933-0.28-1.833-0.687-2.7-1.22v0 0.05c-1.633-1.033-2.45-2.933-2.45-5.7v0-2.45c0-1.367 0.243-2.56 0.73-3.58 0.48-1.013 1.153-1.82 2.02-2.42v0h-0.05c0.833-0.567 1.717-0.993 2.65-1.28 0.933-0.28 1.833-0.42 2.7-0.42v0h11.05v-4.65c0-0.833-0.257-1.593-0.77-2.28-0.52-0.68-1.397-1.02-2.63-1.02v0h-5.85c-1.267 0-2.14 0.307-2.62 0.92-0.487 0.62-0.73 1.347-0.73 2.18v0 0.4c0 1.733-0.933 2.6-2.8 2.6v0c-1.867 0-2.8-0.867-2.8-2.6v0-0.45c0-1.367 0.243-2.517 0.73-3.45 0.48-0.933 1.137-1.717 1.97-2.35v0h-0.05c0.867-0.567 1.777-1.033 2.73-1.4 0.947-0.367 1.853-0.55 2.72-0.55v0h7.6c0.833 0 1.727 0.183 2.68 0.55 0.947 0.367 1.837 0.833 2.67 1.4v0h-0.05c0.867 0.633 1.533 1.457 2 2.47 0.467 1.02 0.7 2.197 0.7 3.53v0 20.05c0 1.6-0.917 2.4-2.75 2.4v0c-0.367 0-0.707-0.017-1.02-0.05-0.32-0.033-0.603-0.127-0.85-0.28-0.253-0.147-0.453-0.363-0.6-0.65-0.153-0.28-0.23-0.653-0.23-1.12v0l-0.05-10.95h-10.1c-0.733 0-1.3 0.083-1.7 0.25-0.4 0.167-0.717 0.433-0.95 0.8v0c-0.267 0.567-0.457 1.007-0.57 1.32-0.12 0.32-0.18 0.68-0.18 1.08v0 1.95c0 0.867 0.26 1.523 0.78 1.97 0.513 0.453 1.403 0.68 2.67 0.68v0h5.6c1.233 0 1.85 0.783 1.85 2.35v0c0 0.667-0.15 1.223-0.45 1.67-0.3 0.453-0.767 0.68-1.4 0.68zM121.1 18.6v23.3c0 1.6-0.917 2.4-2.75 2.4v0c-1.833 0-2.75-0.8-2.75-2.4v0-35.5c0-1.6 0.917-2.4 2.75-2.4v0c1.833 0 2.75 0.8 2.75 2.4v0 7.5h10.55c1.7 0 3.467 0.633 5.3 1.9v0c1.8 1.267 2.7 3.267 2.7 6v0 20.1c0 1.6-0.917 2.4-2.75 2.4v0c-1.833 0-2.75-0.8-2.75-2.4v0-19.65c0-0.867-0.267-1.7-0.8-2.5v0l0.05 0.05c-0.433-0.8-1.317-1.2-2.65-1.2v0zM170.3 16v20.05c0 1.333-0.233 2.517-0.7 3.55-0.467 1.033-1.133 1.867-2 2.5v0h0.05c-0.833 0.567-1.717 1.023-2.65 1.37-0.933 0.353-1.833 0.53-2.7 0.53v0h-8.05c-0.833 0-1.723-0.177-2.67-0.53-0.953-0.347-1.847-0.803-2.68-1.37v0h0.05c-0.867-0.633-1.533-1.467-2-2.5-0.467-1.033-0.7-2.217-0.7-3.55v0-20.05c0-1.6 0.917-2.4 2.75-2.4v0c1.833 0 2.75 0.8 2.75 2.4v0 19.65c0 0.933 0.233 1.75 0.7 2.45v0c0.433 0.8 1.333 1.2 2.7 1.2v0h6.25c1.333 0 2.217-0.4 2.65-1.2v0l-0.05 0.05c0.533-0.8 0.8-1.633 0.8-2.5v0-19.65c0-1.6 0.917-2.4 2.75-2.4v0c1.833 0 2.75 0.8 2.75 2.4zM182.05 22.25v19.65c0 1.6-0.917 2.4-2.75 2.4v0c-1.833 0-2.75-0.8-2.75-2.4v0-20.1c0-1.367 0.217-2.55 0.65-3.55 0.433-1 1.117-1.817 2.05-2.45v0c1.767-1.267 3.533-1.9 5.3-1.9v0h8.05c1.7 0 3.467 0.633 5.3 1.9v0c1.8 1.267 2.7 3.267 2.7 6v0 20.1c0 1.6-0.917 2.4-2.75 2.4v0c-1.833 0-2.75-0.8-2.75-2.4v0-19.65c0-0.867-0.267-1.7-0.8-2.5v0l0.05 0.05c-0.433-0.8-1.317-1.2-2.65-1.2v0h-6.25c-1.367 0-2.267 0.4-2.7 1.2v0c-0.467 0.7-0.7 1.517-0.7 2.45z" fill="#000000" fill-rule="nonzero" stroke="none" stroke-width="1" stroke-linecap="butt" stroke-linejoin="miter" stroke-miterlimit="10" stroke-dasharray="" stroke-dashoffset="0" font-family="none" font-weight="none" font-size="none" text-anchor="none" style="mix-blend-mode: normal" data-fill-palette-color="quaternary" opacity="1"></path><path d="M24.75 79.6v-6.35c0-0.767-0.283-1.51-0.85-2.23-0.567-0.713-1.567-1.12-3-1.22v0c-0.933 1.133-2.067 1.7-3.4 1.7v0c-1.133 0-2.1-0.4-2.9-1.2-0.8-0.8-1.2-1.783-1.2-2.95v0c0-1.167 0.4-2.15 1.2-2.95 0.8-0.8 1.767-1.2 2.9-1.2v0c0.6 0 1.193 0.167 1.78 0.5 0.58 0.333 1.103 0.733 1.57 1.2v0c0.733-0.033 1.3-0.15 1.7-0.35 0.4-0.2 0.693-0.443 0.88-0.73 0.18-0.28 0.287-0.603 0.32-0.97 0.033-0.367 0.05-0.733 0.05-1.1v0-5.05c0-0.833-0.257-1.6-0.77-2.3-0.52-0.7-1.397-1.05-2.63-1.05v0h-10.45l-0.05 33c0 0.667-0.31 1.173-0.93 1.52-0.613 0.353-1.287 0.53-2.02 0.53v0c-1.967 0-2.95-0.8-2.95-2.4v0-34.7c0-1.2 0.31-2 0.93-2.4 0.613-0.4 1.353-0.6 2.22-0.6v0h14.5c0.867 0 1.793 0.167 2.78 0.5 0.98 0.333 1.903 0.783 2.77 1.35v0h-0.05c0.867 0.633 1.51 1.467 1.93 2.5 0.413 1.033 0.62 2.233 0.62 3.6v0 5.65c0 1.333-0.283 2.423-0.85 3.27-0.567 0.853-1.167 1.53-1.8 2.03v0c0.433 0.267 0.85 0.54 1.25 0.82 0.4 0.287 0.733 0.597 1 0.93v0c0.433 0.467 0.777 1.017 1.03 1.65 0.247 0.633 0.37 1.383 0.37 2.25v0 7.15c0 2.733-1.067 4.75-3.2 6.05v0c-1.067 0.667-2.073 1.167-3.02 1.5-0.953 0.333-1.897 0.5-2.83 0.5v0h-7.4c-0.567 0-1.007-0.233-1.32-0.7-0.32-0.467-0.48-1.083-0.48-1.85v0c0-1.667 0.7-2.5 2.1-2.5v0h6.85c1.233 0 2.1-0.35 2.6-1.05 0.5-0.7 0.75-1.483 0.75-2.35zM43.4 60.1v25.8c0 1.6-0.917 2.4-2.75 2.4v0c-1.867 0-2.8-0.8-2.8-2.4v0-25.8c0-1.6 0.933-2.4 2.8-2.4v0c1.833 0 2.75 0.8 2.75 2.4zM44.45 51.4v0c0 1.067-0.367 1.967-1.1 2.7-0.733 0.733-1.633 1.1-2.7 1.1v0c-1.067 0-1.973-0.367-2.72-1.1-0.753-0.733-1.13-1.633-1.13-2.7v0c0-1.1 0.377-2.017 1.13-2.75 0.747-0.733 1.653-1.1 2.72-1.1v0c1.067 0 1.967 0.367 2.7 1.1 0.733 0.733 1.1 1.65 1.1 2.75zM71.8 61.5l-15.95 18.15v6.35c0 1.567-0.917 2.35-2.75 2.35v0c-1.833 0-2.75-0.783-2.75-2.35v0-35.6c0-1.6 0.917-2.4 2.75-2.4v0c1.833 0 2.75 0.8 2.75 2.4v0 21.2c0.833-1 1.76-2.077 2.78-3.23 1.013-1.147 2.03-2.313 3.05-3.5 1.013-1.18 2.02-2.347 3.02-3.5 1-1.147 1.933-2.22 2.8-3.22v0 0.05c0.6-0.7 1.2-1.05 1.8-1.05v0c0.333 0 0.66 0.073 0.98 0.22 0.313 0.153 0.653 0.363 1.02 0.63v0h-0.05c0.8 0.667 1.2 1.333 1.2 2v0c0 0.233-0.05 0.49-0.15 0.77-0.1 0.287-0.267 0.53-0.5 0.73zM67.05 74.25l5.5 10.4c0.233 0.433 0.35 0.883 0.35 1.35v0c0 0.867-0.5 1.517-1.5 1.95v0c-0.667 0.4-1.267 0.6-1.8 0.6v0c-0.367 0-0.717-0.123-1.05-0.37-0.333-0.253-0.6-0.563-0.8-0.93v0l-5-9.65c-0.3-0.5-0.45-1-0.45-1.5v0c0-0.833 0.433-1.533 1.3-2.1v0c0.233-0.167 0.477-0.317 0.73-0.45 0.247-0.133 0.52-0.233 0.82-0.3v0c0.367-0.067 0.717 0 1.05 0.2 0.333 0.2 0.617 0.467 0.85 0.8zM85 57.9h8c0.867 0 1.76 0.183 2.68 0.55 0.913 0.367 1.803 0.833 2.67 1.4v0h-0.05c0.867 0.633 1.533 1.457 2 2.47 0.467 1.02 0.7 2.197 0.7 3.53v0 14.2c0 2.733-0.9 4.75-2.7 6.05v0c-1.767 1.267-3.533 1.9-5.3 1.9v0h-8c-0.867 0-1.75-0.15-2.65-0.45-0.9-0.3-1.783-0.783-2.65-1.45v0c-1.8-1.267-2.7-3.283-2.7-6.05v0-14.2c0-1.333 0.233-2.51 0.7-3.53 0.467-1.013 1.133-1.837 2-2.47v0h-0.05c0.833-0.567 1.717-1.033 2.65-1.4 0.933-0.367 1.833-0.55 2.7-0.55zM85.9 83.3h6.2c1.233 0 2.11-0.35 2.63-1.05 0.513-0.7 0.77-1.45 0.77-2.25v0-14.1c0-0.833-0.257-1.593-0.77-2.28-0.52-0.68-1.397-1.02-2.63-1.02v0h-6.2c-1.233 0-2.107 0.34-2.62 1.02-0.52 0.687-0.78 1.447-0.78 2.28v0 14.1c0 0.8 0.26 1.55 0.78 2.25 0.513 0.7 1.387 1.05 2.62 1.05zM112.7 65.25v20.65c0 1.6-0.917 2.4-2.75 2.4v0c-1.9 0-2.85-0.8-2.85-2.4v0-20.7c0-2.733 0.817-4.633 2.45-5.7v0c1.633-1.067 3.517-1.6 5.65-1.6v0h5.7c1.233 0 1.85 0.783 1.85 2.35v0c0.067 1.567-0.55 2.35-1.85 2.35v0h-5.3c-1.2 0-1.983 0.233-2.35 0.7-0.367 0.467-0.55 1.117-0.55 1.95zM141.1 88h-6.55c-1.033 0-2.017-0.143-2.95-0.43-0.933-0.28-1.833-0.687-2.7-1.22v0 0.05c-1.633-1.033-2.45-2.933-2.45-5.7v0-2.45c0-1.367 0.24-2.56 0.72-3.58 0.487-1.013 1.163-1.82 2.03-2.42v0h-0.05c0.833-0.567 1.717-0.993 2.65-1.28 0.933-0.28 1.833-0.42 2.7-0.42v0h11.05v-4.65c0-0.833-0.257-1.593-0.77-2.28-0.52-0.68-1.397-1.02-2.63-1.02v0h-5.85c-1.267 0-2.14 0.307-2.62 0.92-0.487 0.62-0.73 1.347-0.73 2.18v0 0.4c0 1.733-0.933 2.6-2.8 2.6v0c-1.867 0-2.8-0.867-2.8-2.6v0-0.45c0-1.367 0.24-2.517 0.72-3.45 0.487-0.933 1.147-1.717 1.98-2.35v0h-0.05c0.867-0.567 1.773-1.033 2.72-1.4 0.953-0.367 1.863-0.55 2.73-0.55v0h7.6c0.833 0 1.723 0.183 2.67 0.55 0.953 0.367 1.847 0.833 2.68 1.4v0h-0.05c0.867 0.633 1.533 1.457 2 2.47 0.467 1.02 0.7 2.197 0.7 3.53v0 20.05c0 1.6-0.917 2.4-2.75 2.4v0c-0.367 0-0.707-0.017-1.02-0.05-0.32-0.033-0.603-0.127-0.85-0.28-0.253-0.147-0.457-0.363-0.61-0.65-0.147-0.28-0.22-0.653-0.22-1.12v0l-0.05-10.95h-10.1c-0.733 0-1.3 0.083-1.7 0.25-0.4 0.167-0.717 0.433-0.95 0.8v0c-0.267 0.567-0.46 1.007-0.58 1.32-0.113 0.32-0.17 0.68-0.17 1.08v0 1.95c0 0.867 0.257 1.523 0.77 1.97 0.52 0.453 1.413 0.68 2.68 0.68v0h5.6c1.233 0 1.85 0.783 1.85 2.35v0c0 0.667-0.15 1.223-0.45 1.67-0.3 0.453-0.767 0.68-1.4 0.68z" fill="#000000" fill-rule="nonzero" stroke="none" stroke-width="1" stroke-linecap="butt" stroke-linejoin="miter" stroke-miterlimit="10" stroke-dasharray="" stroke-dashoffset="0" font-family="none" font-weight="none" font-size="none" text-anchor="none" style="mix-blend-mode: normal" data-fill-palette-color="quaternary" opacity="1"></path></g></svg></g></svg></g><g transform="matrix(1,0,0,1,0,145.4681615847383)"><svg viewBox="0 0 133.65034264942753 9.269164737754709" height="9.269164737754709" width="133.65034264942753"><g transform="matrix(1,0,0,1,0,0)"><svg width="133.65034264942753" viewBox="0.4 -39.65 728.0500000000001 50.5" height="9.269164737754709" data-palette-color="#000000"><path d="M0.4-34.55L21.95-34.55 21.25-29.55 14.15-29.55 14.15 0 7.8 0 7.8-29.55 0.4-29.55 0.4-34.55ZM37.2-27.15Q40.05-27.15 41.7-25.1 43.35-23.05 43.35-19.6L43.35-19.6 43.35 0 37.2 0 37.2-18.9Q37.2-20.8 36.67-21.63 36.15-22.45 35.15-22.45L35.15-22.45Q33.05-22.45 31-18.5L31-18.5 31 0 24.85 0 24.85-37 31-37.65 31-23.3Q32.25-25.25 33.72-26.2 35.2-27.15 37.2-27.15L37.2-27.15ZM60.55-27.1Q61.7-27.1 62.59-26.75L62.59-26.75 61.59-20.85Q60.59-21.1 59.75-21.1L59.75-21.1Q57.84-21.1 56.75-19.45 55.65-17.8 55.05-14.55L55.05-14.55 55.05 0 48.9 0 48.9-26.45 54.25-26.45 54.7-21.85Q56.55-27.1 60.55-27.1L60.55-27.1ZM65.44-26.45L71.59-26.45 71.59 0 65.44 0 65.44-26.45ZM68.49-39.65Q70.14-39.65 71.17-38.6 72.19-37.55 72.19-35.9L72.19-35.9Q72.19-34.3 71.17-33.25 70.14-32.2 68.49-32.2L68.49-32.2Q66.84-32.2 65.82-33.25 64.79-34.3 64.79-35.9L64.79-35.9Q64.79-37.55 65.82-38.6 66.84-39.65 68.49-39.65L68.49-39.65ZM89.69-26.45L95.74-26.45 88.84 0 81.59 0 74.49-26.45 80.84-26.45 85.19-4.95 89.69-26.45ZM98.64-26.45L104.79-26.45 104.79 0 98.64 0 98.64-26.45ZM101.69-39.65Q103.34-39.65 104.36-38.6 105.39-37.55 105.39-35.9L105.39-35.9Q105.39-34.3 104.36-33.25 103.34-32.2 101.69-32.2L101.69-32.2Q100.04-32.2 99.01-33.25 97.99-34.3 97.99-35.9L97.99-35.9Q97.99-37.55 99.01-38.6 100.04-39.65 101.69-39.65L101.69-39.65ZM122.83-27.15Q125.68-27.15 127.33-25.1 128.98-23.05 128.98-19.6L128.98-19.6 128.98 0 122.83 0 122.83-18.9Q122.83-20.8 122.31-21.63 121.78-22.45 120.78-22.45L120.78-22.45Q118.68-22.45 116.63-18.5L116.63-18.5 116.63 0 110.48 0 110.48-26.45 115.83-26.45 116.28-23Q117.63-25.1 119.16-26.13 120.68-27.15 122.83-27.15L122.83-27.15ZM152.48-29.85L154.03-25.1Q152.98-24.6 151.51-24.4 150.03-24.2 147.83-24.2L147.83-24.2Q149.93-23.2 150.96-21.53 151.98-19.85 151.98-17.4L151.98-17.4Q151.98-13.4 149.53-10.95 147.08-8.5 142.88-8.5L142.88-8.5Q141.63-8.5 140.33-8.9L140.33-8.9Q139.43-8.15 139.43-6.85L139.43-6.85Q139.43-5.85 139.98-5.35 140.53-4.85 142.03-4.85L142.03-4.85 144.83-4.85Q148.83-4.85 151.18-2.78 153.53-0.7 153.53 2.5L153.53 2.5Q153.53 6.3 150.61 8.58 147.68 10.85 142.28 10.85L142.28 10.85Q136.58 10.85 134.31 8.75 132.03 6.65 132.03 2.6L132.03 2.6 137.48 2.6Q137.48 4.75 138.48 5.65 139.48 6.55 142.33 6.55L142.33 6.55Q145.08 6.55 146.23 5.6 147.38 4.65 147.38 2.9L147.38 2.9Q147.38 1.2 146.43 0.4 145.48-0.4 143.48-0.4L143.48-0.4 141.58-0.4Q137.78-0.4 136.03-1.75 134.28-3.1 134.28-5.45L134.28-5.45Q134.28-6.8 135.01-8.03 135.73-9.25 136.98-10.2L136.98-10.2Q134.93-11.5 133.98-13.3 133.03-15.1 133.03-17.7L133.03-17.7Q133.03-22.05 135.63-24.58 138.23-27.1 142.63-27.1L142.63-27.1Q145.88-27.1 148.01-27.8 150.13-28.5 152.48-29.85L152.48-29.85ZM142.63-23Q140.88-23 139.98-21.75 139.08-20.5 139.08-17.8L139.08-17.8Q139.08-15.25 139.98-13.88 140.88-12.5 142.58-12.5L142.58-12.5Q144.33-12.5 145.18-13.73 146.03-14.95 146.03-17.85L146.03-17.85Q146.03-20.55 145.21-21.78 144.38-23 142.63-23L142.63-23ZM176.33-33.05Q174.93-33.05 174.25-32.3 173.58-31.55 173.58-30L173.58-30 173.58-26.45 178.63-26.45 177.93-22 173.58-22 173.58 0 167.43 0 167.43-22 164.13-22 164.13-26.45 167.43-26.45 167.43-29.8Q167.43-33.4 169.53-35.55 171.63-37.7 175.53-37.7L175.53-37.7Q178.58-37.7 181.43-36.2L181.43-36.2 179.73-32.2Q177.98-33.05 176.33-33.05L176.33-33.05ZM190.83-27.15Q195.83-27.15 198.6-23.65 201.38-20.15 201.38-13.25L201.38-13.25Q201.38-6.65 198.58-2.95 195.78 0.75 190.83 0.75L190.83 0.75Q185.88 0.75 183.08-2.88 180.28-6.5 180.28-13.25L180.28-13.25Q180.28-19.95 183.08-23.55 185.88-27.15 190.83-27.15L190.83-27.15ZM190.83-22.5Q188.68-22.5 187.68-20.38 186.68-18.25 186.68-13.25L186.68-13.25Q186.68-8.2 187.68-6.08 188.68-3.95 190.83-3.95L190.83-3.95Q192.98-3.95 193.98-6.08 194.98-8.2 194.98-13.25L194.98-13.25Q194.98-18.3 193.98-20.4 192.98-22.5 190.83-22.5L190.83-22.5ZM217.57-27.1Q218.72-27.1 219.62-26.75L219.62-26.75 218.62-20.85Q217.62-21.1 216.77-21.1L216.77-21.1Q214.87-21.1 213.77-19.45 212.67-17.8 212.07-14.55L212.07-14.55 212.07 0 205.92 0 205.92-26.45 211.27-26.45 211.72-21.85Q213.57-27.1 217.57-27.1L217.57-27.1ZM232.47-34.55L249.62-34.55 248.97-29.8 238.82-29.8 238.82-19.9 247.67-19.9 247.67-15.2 238.82-15.2 238.82-4.8 249.62-4.8 249.62 0 232.47 0 232.47-34.55ZM271.42-26.45L265.32-14.15 272.47 0 265.97 0 261.57-10.65 257.27 0 250.92 0 258.07-13.95 251.62-26.45 258.02-26.45 261.67-17.25 265.22-26.45 271.42-26.45ZM284.66-27.15Q286.81-27.15 288.56-26.43 290.31-25.7 291.91-24.15L291.91-24.15 289.26-20.65Q288.16-21.55 287.19-21.98 286.21-22.4 285.06-22.4L285.06-22.4Q282.81-22.4 281.66-20.28 280.51-18.15 280.51-13.1L280.51-13.1Q280.51-8.2 281.69-6.2 282.86-4.2 285.06-4.2L285.06-4.2Q286.16-4.2 287.06-4.6 287.96-5 289.16-5.85L289.16-5.85 291.91-2.3Q288.71 0.75 284.76 0.75L284.76 0.75Q279.66 0.75 276.84-2.73 274.01-6.2 274.01-13L274.01-13Q274.01-17.4 275.31-20.6 276.61-23.8 279.04-25.48 281.46-27.15 284.66-27.15L284.66-27.15ZM313.81-13.85Q313.81-13.4 313.66-11.3L313.66-11.3 300.01-11.3Q300.21-7.2 301.44-5.58 302.66-3.95 304.91-3.95L304.91-3.95Q306.46-3.95 307.71-4.48 308.96-5 310.41-6.15L310.41-6.15 312.96-2.65Q309.46 0.75 304.56 0.75L304.56 0.75Q299.36 0.75 296.59-2.85 293.81-6.45 293.81-13L293.81-13Q293.81-19.55 296.46-23.35 299.11-27.15 303.96-27.15L303.96-27.15Q308.61-27.15 311.21-23.78 313.81-20.4 313.81-13.85L313.81-13.85ZM307.81-15.3L307.81-15.65Q307.81-19.4 306.91-21.13 306.01-22.85 304.01-22.85L304.01-22.85Q302.16-22.85 301.19-21.18 300.21-19.5 300.01-15.3L300.01-15.3 307.81-15.3ZM323.71 0.75Q321.01 0.75 319.43-0.93 317.86-2.6 317.86-5.4L317.86-5.4 317.86-37.05 324.01-37.7 324.01-5.65Q324.01-5 324.31-4.6 324.61-4.2 325.21-4.2L325.21-4.2Q325.56-4.2 325.88-4.3 326.21-4.4 326.31-4.4L326.31-4.4 327.51-0.2Q325.81 0.75 323.71 0.75L323.71 0.75ZM336.16 0.75Q333.46 0.75 331.88-0.93 330.31-2.6 330.31-5.4L330.31-5.4 330.31-37.05 336.46-37.7 336.46-5.65Q336.46-5 336.76-4.6 337.06-4.2 337.66-4.2L337.66-4.2Q338.01-4.2 338.33-4.3 338.66-4.4 338.76-4.4L338.76-4.4 339.96-0.2Q338.26 0.75 336.16 0.75L336.16 0.75ZM361.85-13.85Q361.85-13.4 361.7-11.3L361.7-11.3 348.05-11.3Q348.25-7.2 349.48-5.58 350.7-3.95 352.95-3.95L352.95-3.95Q354.5-3.95 355.75-4.48 357-5 358.45-6.15L358.45-6.15 361-2.65Q357.5 0.75 352.6 0.75L352.6 0.75Q347.4 0.75 344.63-2.85 341.85-6.45 341.85-13L341.85-13Q341.85-19.55 344.5-23.35 347.15-27.15 352-27.15L352-27.15Q356.65-27.15 359.25-23.78 361.85-20.4 361.85-13.85L361.85-13.85ZM355.85-15.3L355.85-15.65Q355.85-19.4 354.95-21.13 354.05-22.85 352.05-22.85L352.05-22.85Q350.2-22.85 349.23-21.18 348.25-19.5 348.05-15.3L348.05-15.3 355.85-15.3ZM378.5-27.15Q381.35-27.15 383-25.1 384.65-23.05 384.65-19.6L384.65-19.6 384.65 0 378.5 0 378.5-18.9Q378.5-20.8 377.98-21.63 377.45-22.45 376.45-22.45L376.45-22.45Q374.35-22.45 372.3-18.5L372.3-18.5 372.3 0 366.15 0 366.15-26.45 371.5-26.45 371.95-23Q373.3-25.1 374.82-26.13 376.35-27.15 378.5-27.15L378.5-27.15ZM399.7-27.15Q401.85-27.15 403.6-26.43 405.35-25.7 406.95-24.15L406.95-24.15 404.3-20.65Q403.2-21.55 402.22-21.98 401.25-22.4 400.1-22.4L400.1-22.4Q397.85-22.4 396.7-20.28 395.55-18.15 395.55-13.1L395.55-13.1Q395.55-8.2 396.72-6.2 397.9-4.2 400.1-4.2L400.1-4.2Q401.2-4.2 402.1-4.6 403-5 404.2-5.85L404.2-5.85 406.95-2.3Q403.75 0.75 399.8 0.75L399.8 0.75Q394.7 0.75 391.87-2.73 389.05-6.2 389.05-13L389.05-13Q389.05-17.4 390.35-20.6 391.65-23.8 394.07-25.48 396.5-27.15 399.7-27.15L399.7-27.15ZM428.85-13.85Q428.85-13.4 428.7-11.3L428.7-11.3 415.05-11.3Q415.25-7.2 416.47-5.58 417.7-3.95 419.95-3.95L419.95-3.95Q421.5-3.95 422.75-4.48 424-5 425.45-6.15L425.45-6.15 428-2.65Q424.5 0.75 419.6 0.75L419.6 0.75Q414.4 0.75 411.62-2.85 408.85-6.45 408.85-13L408.85-13Q408.85-19.55 411.5-23.35 414.15-27.15 419-27.15L419-27.15Q423.65-27.15 426.25-23.78 428.85-20.4 428.85-13.85L428.85-13.85ZM422.85-15.3L422.85-15.65Q422.85-19.4 421.95-21.13 421.05-22.85 419.05-22.85L419.05-22.85Q417.2-22.85 416.22-21.18 415.25-19.5 415.05-15.3L415.05-15.3 422.85-15.3ZM435.54-7.05Q437.14-7.05 438.17-5.98 439.19-4.9 439.19-3.25L439.19-3.25Q439.19-2.55 438.97-1.78 438.74-1 438.39-0.08 438.04 0.85 437.94 1.2L437.94 1.2 435.29 8.55 431.84 8.55 433.64 0.1Q431.84-1.2 431.84-3.2L431.84-3.2Q431.84-4.85 432.89-5.95 433.94-7.05 435.54-7.05L435.54-7.05ZM467.64-18.3Q470.99-17.55 472.91-15.63 474.84-13.7 474.84-9.9L474.84-9.9Q474.84-4.9 471.46-2.45 468.09 0 462.29 0L462.29 0 453.59 0 453.59-34.55 461.14-34.55Q467.09-34.55 470.34-32.3 473.59-30.05 473.59-25.75L473.59-25.75Q473.59-22.85 471.96-20.95 470.34-19.05 467.64-18.3L467.64-18.3ZM461.79-29.85L459.94-29.85 459.94-20.3 462.09-20.3Q467.14-20.3 467.14-25.2L467.14-25.2Q467.14-27.65 465.86-28.75 464.59-29.85 461.79-29.85L461.79-29.85ZM462.34-4.8Q465.24-4.8 466.74-6.03 468.24-7.25 468.24-10.15L468.24-10.15Q468.24-13.05 466.84-14.43 465.44-15.8 462.49-15.8L462.49-15.8 459.94-15.8 459.94-4.8 462.34-4.8ZM497.69-13.85Q497.69-13.4 497.54-11.3L497.54-11.3 483.88-11.3Q484.09-7.2 485.31-5.58 486.54-3.95 488.79-3.95L488.79-3.95Q490.34-3.95 491.59-4.48 492.84-5 494.29-6.15L494.29-6.15 496.84-2.65Q493.34 0.75 488.44 0.75L488.44 0.75Q483.24 0.75 480.46-2.85 477.69-6.45 477.69-13L477.69-13Q477.69-19.55 480.34-23.35 482.99-27.15 487.84-27.15L487.84-27.15Q492.49-27.15 495.09-23.78 497.69-20.4 497.69-13.85L497.69-13.85ZM491.69-15.3L491.69-15.65Q491.69-19.4 490.79-21.13 489.88-22.85 487.88-22.85L487.88-22.85Q486.04-22.85 485.06-21.18 484.09-19.5 483.88-15.3L483.88-15.3 491.69-15.3ZM520.63-26.45L513.63 0.1Q512.33 4.9 509.43 7.65 506.53 10.4 501.68 10.85L501.68 10.85 500.98 6.5Q504.13 5.85 505.71 4.42 507.28 3 508.18 0L508.18 0 505.88 0 499.18-26.45 505.43-26.45 509.83-4.1 514.53-26.45 520.63-26.45ZM532.93-27.15Q537.93-27.15 540.7-23.65 543.48-20.15 543.48-13.25L543.48-13.25Q543.48-6.65 540.68-2.95 537.88 0.75 532.93 0.75L532.93 0.75Q527.98 0.75 525.18-2.88 522.38-6.5 522.38-13.25L522.38-13.25Q522.38-19.95 525.18-23.55 527.98-27.15 532.93-27.15L532.93-27.15ZM532.93-22.5Q530.78-22.5 529.78-20.38 528.78-18.25 528.78-13.25L528.78-13.25Q528.78-8.2 529.78-6.08 530.78-3.95 532.93-3.95L532.93-3.95Q535.08-3.95 536.08-6.08 537.08-8.2 537.08-13.25L537.08-13.25Q537.08-18.3 536.08-20.4 535.08-22.5 532.93-22.5L532.93-22.5ZM560.38-27.15Q563.23-27.15 564.88-25.1 566.53-23.05 566.53-19.6L566.53-19.6 566.53 0 560.38 0 560.38-18.9Q560.38-20.8 559.85-21.63 559.33-22.45 558.33-22.45L558.33-22.45Q556.23-22.45 554.18-18.5L554.18-18.5 554.18 0 548.03 0 548.03-26.45 553.38-26.45 553.83-23Q555.18-25.1 556.7-26.13 558.23-27.15 560.38-27.15L560.38-27.15ZM585.02-37.7L591.17-37.05 591.17 0 585.72 0 585.42-3.05Q583.07 0.75 579.37 0.75L579.37 0.75Q575.27 0.75 573.1-2.93 570.92-6.6 570.92-13.2L570.92-13.2Q570.92-17.4 572.05-20.58 573.17-23.75 575.17-25.45 577.17-27.15 579.77-27.15L579.77-27.15Q582.97-27.15 585.02-24.5L585.02-24.5 585.02-37.7ZM581.12-3.9Q582.27-3.9 583.2-4.7 584.12-5.5 585.02-7L585.02-7 585.02-19.85Q583.42-22.55 581.37-22.55L581.37-22.55Q577.32-22.55 577.32-13.25L577.32-13.25Q577.32-8.2 578.32-6.05 579.32-3.9 581.12-3.9L581.12-3.9ZM606.87-34.55L613.22-34.55 613.22-5.25 624.37-5.25 623.67 0 606.87 0 606.87-34.55ZM627.57-26.45L633.72-26.45 633.72 0 627.57 0 627.57-26.45ZM630.62-39.65Q632.27-39.65 633.29-38.6 634.32-37.55 634.32-35.9L634.32-35.9Q634.32-34.3 633.29-33.25 632.27-32.2 630.62-32.2L630.62-32.2Q628.97-32.2 627.94-33.25 626.92-34.3 626.92-35.9L626.92-35.9Q626.92-37.55 627.94-38.6 628.97-39.65 630.62-39.65L630.62-39.65ZM663.06-27.15Q665.71-27.15 667.31-25.1 668.91-23.05 668.91-19.6L668.91-19.6 668.91 0 662.86 0 662.86-18.95Q662.86-20.85 662.36-21.68 661.86-22.5 660.91-22.5L660.91-22.5Q658.96-22.5 657.16-18.8L657.16-18.8 657.16 0 651.16 0 651.16-18.95Q651.16-22.5 649.26-22.5L649.26-22.5Q647.21-22.5 645.46-18.8L645.46-18.8 645.46 0 639.41 0 639.41-26.45 644.76-26.45 645.16-23.05Q647.76-27.15 651.41-27.15L651.41-27.15Q653.26-27.15 654.61-26 655.96-24.85 656.66-22.75L656.66-22.75Q659.31-27.15 663.06-27.15L663.06-27.15ZM674.41-26.45L680.56-26.45 680.56 0 674.41 0 674.41-26.45ZM677.46-39.65Q679.11-39.65 680.14-38.6 681.16-37.55 681.16-35.9L681.16-35.9Q681.16-34.3 680.14-33.25 679.11-32.2 677.46-32.2L677.46-32.2Q675.81-32.2 674.79-33.25 673.76-34.3 673.76-35.9L673.76-35.9Q673.76-37.55 674.79-38.6 675.81-39.65 677.46-39.65L677.46-39.65ZM697.41-5L699.56-1.2Q697.11 0.75 693.81 0.75L693.81 0.75Q690.36 0.75 688.56-1.23 686.76-3.2 686.76-6.6L686.76-6.6 686.76-22 683.66-22 683.66-26.45 686.76-26.45 686.76-32.3 692.91-33.05 692.91-26.45 697.91-26.45 697.31-22 692.91-22 692.91-6.6Q692.91-4.2 694.96-4.2L694.96-4.2Q695.61-4.2 696.11-4.38 696.61-4.55 697.41-5L697.41-5ZM709.46-27.15Q714.16-27.15 717.41-24.05L717.41-24.05 715.06-20.7Q713.66-21.7 712.41-22.2 711.16-22.7 709.86-22.7L709.86-22.7Q708.41-22.7 707.58-21.93 706.76-21.15 706.76-19.8L706.76-19.8Q706.76-18.45 707.68-17.63 708.61-16.8 711.41-15.7L711.41-15.7Q714.86-14.35 716.51-12.5 718.16-10.65 718.16-7.55L718.16-7.55Q718.16-3.7 715.46-1.48 712.76 0.75 708.61 0.75L708.61 0.75Q705.91 0.75 703.63-0.23 701.36-1.2 699.66-2.95L699.66-2.95 702.66-6.25Q705.46-3.8 708.36-3.8L708.36-3.8Q710.01-3.8 710.96-4.67 711.91-5.55 711.91-7.1L711.91-7.1Q711.91-8.25 711.51-8.97 711.11-9.7 710.11-10.33 709.11-10.95 707.11-11.7L707.11-11.7Q703.66-13.05 702.18-14.85 700.71-16.65 700.71-19.45L700.71-19.45Q700.71-22.8 703.08-24.98 705.46-27.15 709.46-27.15L709.46-27.15ZM721.35-34.55L727.9-34.55 727.05-12.1 722.2-12.1 721.35-34.55ZM724.65-7.05Q726.3-7.05 727.38-5.9 728.45-4.75 728.45-3.15L728.45-3.15Q728.45-1.55 727.38-0.4 726.3 0.75 724.65 0.75L724.65 0.75Q723 0.75 721.93-0.4 720.85-1.55 720.85-3.15L720.85-3.15Q720.85-4.75 721.93-5.9 723-7.05 724.65-7.05L724.65-7.05Z" opacity="1" transform="matrix(1,0,0,1,0,0)" fill="#000000" class="slogan-text-1" data-fill-palette-color="quaternary" id="text-1"></path></svg></g></svg></g></svg></g></svg></g><g></g></svg></g></svg></g></svg></g></svg></g><defs></defs><mask id="77febca2-9935-47c8-b16d-6b218b445396"><g id="SvgjsG2143"><svg viewBox="0 0 342.8515585177538 342.8515585177538" height="342.8515585177538" width="342.8515585177538"><g><svg></svg></g><g><svg viewBox="0 0 342.8515585177538 342.8515585177538" height="342.8515585177538" width="342.8515585177538"><g><path d="M0 171.426c0-94.676 76.75-171.426 171.426-171.426 94.676 0 171.426 76.75 171.426 171.426 0 94.676-76.75 171.426-171.426 171.426-94.676 0-171.426-76.75-171.426-171.426zM171.426 339.055c92.579 0 167.629-75.05 167.629-167.629 0-92.579-75.05-167.629-167.629-167.63-92.579 0-167.629 75.05-167.63 167.63 0 92.579 75.05 167.629 167.63 167.629z" fill="white" stroke="transparent"></path><ellipse rx="164.56874808852183" ry="164.56874808852183" cx="171.4257792588769" cy="171.4257792588769" fill="white" stroke="transparent" stroke-width="0" fill-opacity="1"></ellipse></g><g transform="matrix(1,0,0,1,64.84655864529836,94.05711609763041)"><svg viewBox="0 0 213.15844122715708 154.73732632249298" height="154.73732632249298" width="213.15844122715708"><g><svg viewBox="0 0 213.15844122715708 154.73732632249298" height="154.73732632249298" width="213.15844122715708"><g><svg viewBox="0 0 213.15844122715714 154.737326322493" height="154.73732632249298" width="213.15844122715708"><g><svg viewBox="0 0 213.15844122715714 154.737326322493" height="154.737326322493" width="213.15844122715714"><g id="SvgjsG2142"><svg viewBox="0 0 213.15844122715714 154.737326322493" height="154.737326322493" width="213.15844122715714" id="SvgjsSvg2141"><g><svg viewBox="0 0 213.15844122715714 135.5301887201601" height="135.5301887201601" width="213.15844122715714"><g transform="matrix(1,0,0,1,0,0)"><svg width="213.15844122715714" viewBox="0.3999970000399987 -40.15 207.55000299996 128.7" height="135.5301887201601" data-palette-color="#000000"><svg></svg><svg></svg><svg></svg><g class="wordmark-text-0" data-fill-palette-color="quaternary" id="SvgjsG2140"><path d="M28.15-1.2l-11-33.6-10.95 33.6v-0.05c-0.2 0.5-0.473 0.907-0.82 1.22-0.353 0.32-0.78 0.48-1.28 0.48v0c-0.267 0-0.523-0.023-0.77-0.07-0.253-0.053-0.513-0.113-0.78-0.18v0h0.05c-1.9-0.6-2.6-1.667-2.1-3.2v0l11.4-34.65c0.167-0.533 0.46-0.983 0.88-1.35 0.413-0.367 0.903-0.583 1.47-0.65v0c0.567-0.1 1.117-0.177 1.65-0.23 0.533-0.047 0.95-0.07 1.25-0.07v0c0.3 0 0.717 0.023 1.25 0.07 0.533 0.053 1.083 0.113 1.65 0.18v0c0.467 0.067 0.927 0.317 1.38 0.75 0.447 0.433 0.787 0.867 1.02 1.3v0c1.867 5.733 3.76 11.507 5.68 17.32 1.913 5.82 3.803 11.597 5.67 17.33v0c0.467 1.533-0.233 2.6-2.1 3.2v0c-0.267 0.067-0.507 0.127-0.72 0.18-0.22 0.047-0.463 0.07-0.73 0.07v0c-0.467 0-0.89-0.16-1.27-0.48-0.387-0.313-0.663-0.72-0.83-1.22v0zM20.9-12v0c0 1.067-0.373 1.973-1.12 2.72-0.753 0.753-1.663 1.13-2.73 1.13v0c-1.067 0-1.967-0.377-2.7-1.13-0.733-0.747-1.1-1.653-1.1-2.72v0c0-1.067 0.367-1.977 1.1-2.73 0.733-0.747 1.633-1.12 2.7-1.12v0c1.067 0 1.977 0.373 2.73 1.12 0.747 0.753 1.12 1.663 1.12 2.73zM53.35-1.95v-19.8c0-0.433-0.067-0.86-0.2-1.28-0.133-0.413-0.3-0.803-0.5-1.17v0c-0.433-0.8-1.333-1.2-2.7-1.2v0h-3.2c-1.367 0-2.283 0.4-2.75 1.2v0c-0.4 0.767-0.6 1.583-0.6 2.45v0 19.8c0 1.567-0.917 2.35-2.75 2.35v0c-1.9 0-2.85-0.783-2.85-2.35v0-20.25c0-2.733 0.9-4.733 2.7-6v0c1.833-1.267 3.617-1.9 5.35-1.9v0h5.05c0.767 0 1.617 0.15 2.55 0.45 0.933 0.3 1.833 0.767 2.7 1.4v0c0.833-0.633 1.71-1.1 2.63-1.4 0.913-0.3 1.787-0.45 2.62-0.45v0h5c1.767 0 3.533 0.633 5.3 1.9v0c1.833 1.233 2.75 3.233 2.75 6v0 20.25c0 1.567-0.933 2.35-2.8 2.35v0c-1.867 0-2.8-0.783-2.8-2.35v0-19.8c0-0.433-0.05-0.867-0.15-1.3-0.1-0.433-0.283-0.833-0.55-1.2v0l0.05 0.05c-0.267-0.433-0.6-0.743-1-0.93-0.4-0.18-0.983-0.27-1.75-0.27v0h-3.15c-1.4 0-2.317 0.4-2.75 1.2v0c-0.433 0.733-0.65 1.55-0.65 2.45v0 19.8c0 1.567-0.917 2.35-2.75 2.35v0c-1.867 0-2.8-0.783-2.8-2.35zM94.65 0h-6.55c-1.033 0-2.017-0.143-2.95-0.43-0.933-0.28-1.833-0.687-2.7-1.22v0 0.05c-1.633-1.033-2.45-2.933-2.45-5.7v0-2.45c0-1.367 0.24-2.56 0.72-3.58 0.487-1.013 1.163-1.82 2.03-2.42v0h-0.05c0.833-0.567 1.717-0.993 2.65-1.28 0.933-0.28 1.833-0.42 2.7-0.42v0h11.05v-4.65c0-0.833-0.257-1.593-0.77-2.28-0.52-0.68-1.397-1.02-2.63-1.02v0h-5.85c-1.267 0-2.143 0.307-2.63 0.92-0.48 0.62-0.72 1.347-0.72 2.18v0 0.4c0 1.733-0.933 2.6-2.8 2.6v0c-1.867 0-2.8-0.867-2.8-2.6v0-0.45c0-1.367 0.243-2.517 0.73-3.45 0.48-0.933 1.137-1.717 1.97-2.35v0h-0.05c0.867-0.567 1.777-1.033 2.73-1.4 0.947-0.367 1.853-0.55 2.72-0.55v0h7.6c0.833 0 1.727 0.183 2.68 0.55 0.947 0.367 1.837 0.833 2.67 1.4v0h-0.05c0.867 0.633 1.533 1.457 2 2.47 0.467 1.02 0.7 2.197 0.7 3.53v0 20.05c0 1.6-0.917 2.4-2.75 2.4v0c-0.367 0-0.707-0.017-1.02-0.05-0.32-0.033-0.607-0.127-0.86-0.28-0.247-0.147-0.443-0.363-0.59-0.65-0.153-0.28-0.23-0.653-0.23-1.12v0l-0.05-10.95h-10.1c-0.733 0-1.3 0.083-1.7 0.25-0.4 0.167-0.717 0.433-0.95 0.8v0c-0.267 0.567-0.457 1.007-0.57 1.32-0.12 0.32-0.18 0.68-0.18 1.08v0 1.95c0 0.867 0.26 1.523 0.78 1.97 0.513 0.453 1.403 0.68 2.67 0.68v0h5.6c1.233 0 1.85 0.783 1.85 2.35v0c0 0.667-0.15 1.223-0.45 1.67-0.3 0.453-0.767 0.68-1.4 0.68zM116.55-21.75v19.65c0 1.6-0.917 2.4-2.75 2.4v0c-1.833 0-2.75-0.8-2.75-2.4v0-20.1c0-1.367 0.217-2.55 0.65-3.55 0.433-1 1.117-1.817 2.05-2.45v0c1.767-1.267 3.533-1.9 5.3-1.9v0h8.05c1.7 0 3.467 0.633 5.3 1.9v0c1.8 1.267 2.7 3.267 2.7 6v0 20.1c0 1.6-0.917 2.4-2.75 2.4v0c-1.833 0-2.75-0.8-2.75-2.4v0-19.65c0-0.867-0.267-1.7-0.8-2.5v0l0.05 0.05c-0.433-0.8-1.317-1.2-2.65-1.2v0h-6.25c-1.367 0-2.267 0.4-2.7 1.2v0c-0.467 0.7-0.7 1.517-0.7 2.45zM165.6-28v20.05c0 1.333-0.233 2.517-0.7 3.55-0.467 1.033-1.133 1.867-2 2.5v0h0.05c-0.833 0.567-1.717 1.023-2.65 1.37-0.933 0.353-1.833 0.53-2.7 0.53v0h-8.05c-0.833 0-1.723-0.177-2.67-0.53-0.953-0.347-1.847-0.803-2.68-1.37v0h0.05c-0.867-0.633-1.533-1.467-2-2.5-0.467-1.033-0.7-2.217-0.7-3.55v0-20.05c0-1.6 0.917-2.4 2.75-2.4v0c1.833 0 2.75 0.8 2.75 2.4v0 19.65c0 0.933 0.233 1.75 0.7 2.45v0c0.433 0.8 1.333 1.2 2.7 1.2v0h6.25c1.333 0 2.217-0.4 2.65-1.2v0l-0.05 0.05c0.533-0.8 0.8-1.633 0.8-2.5v0-19.65c0-1.6 0.917-2.4 2.75-2.4v0c1.833 0 2.75 0.8 2.75 2.4zM177.35-22.15v14.15c0 0.8 0.26 1.55 0.78 2.25 0.513 0.7 1.387 1.05 2.62 1.05v0h6.25c1.233 0 2.11-0.31 2.63-0.93 0.513-0.613 0.77-1.32 0.77-2.12v0-0.55c0-1.567 0.917-2.35 2.75-2.35v0c1.833 0 2.75 0.783 2.75 2.35v0 0.6c0 1.4-0.223 2.55-0.67 3.45-0.453 0.9-1.13 1.683-2.03 2.35v0c-1.767 1.267-3.533 1.9-5.3 1.9v0h-8.4c-1.767 0-3.483-0.633-5.15-1.9v0c-0.8-0.667-1.417-1.507-1.85-2.52-0.433-1.02-0.65-2.197-0.65-3.53v0-14.25c0-2.7 0.833-4.7 2.5-6v0c0.833-0.6 1.693-1.077 2.58-1.43 0.88-0.347 1.737-0.52 2.57-0.52v0h8.4c0.8 0 1.683 0.157 2.65 0.47 0.967 0.32 1.867 0.747 2.7 1.28v0c0.8 0.567 1.443 1.35 1.93 2.35 0.48 1 0.72 2.183 0.72 3.55v0 6.75c0 0.767-0.223 1.45-0.67 2.05-0.453 0.6-1.28 0.9-2.48 0.9v0h-10.8c-1.2 0-1.833-0.783-1.9-2.35v0c0-1.567 0.633-2.35 1.9-2.35v0h8.5l-0.05-4.65c0-0.833-0.257-1.593-0.77-2.28-0.52-0.68-1.397-1.02-2.63-1.02v0h-6.25c-1.233 0-2.107 0.34-2.62 1.02-0.52 0.687-0.78 1.447-0.78 2.28zM207.95-37.8v35.85c0 1.567-0.917 2.35-2.75 2.35v0c-1.867 0-2.8-0.783-2.8-2.35v0-35.85c0-1.567 0.933-2.35 2.8-2.35v0c1.833 0 2.75 0.783 2.75 2.35z" fill="black" fill-rule="nonzero" stroke="none" stroke-width="1" stroke-linecap="butt" stroke-linejoin="miter" stroke-miterlimit="10" stroke-dasharray="" stroke-dashoffset="0" font-family="none" font-weight="none" font-size="none" text-anchor="none" style="mix-blend-mode: normal" opacity="1"></path><path d="M24.55 35.6v-9.65c0-1.633 1-2.45 3-2.45v0c1.967 0 2.95 0.783 2.95 2.35v0 10.15c0 2.7-0.9 4.717-2.7 6.05v0c-0.867 0.633-1.757 1.123-2.67 1.47-0.92 0.353-1.813 0.53-2.68 0.53v0h-10.4c-0.867 0-1.757-0.177-2.67-0.53-0.92-0.347-1.813-0.837-2.68-1.47v0c-0.867-0.667-1.533-1.49-2-2.47-0.467-0.987-0.7-2.18-0.7-3.58v0-23.75c0-1.367 0.243-2.55 0.73-3.55 0.48-1 1.137-1.817 1.97-2.45v0h-0.05c0.867-0.567 1.767-1.033 2.7-1.4 0.933-0.367 1.833-0.55 2.7-0.55v0h9.9c0.867 0 1.767 0.183 2.7 0.55 0.933 0.367 1.833 0.833 2.7 1.4v0h-0.05c1.767 1.3 2.65 3.3 2.65 6v0 3.45c0 1.6-0.983 2.4-2.95 2.4v0c-1.967 0-2.95-0.8-2.95-2.4v0-3c0-0.833-0.25-1.6-0.75-2.3-0.5-0.7-1.367-1.05-2.6-1.05v0h-7.35c-1.267 0-2.15 0.35-2.65 1.05-0.5 0.7-0.75 1.467-0.75 2.3v0 22.9c0 0.433 0.06 0.85 0.18 1.25 0.113 0.4 0.303 0.757 0.57 1.07 0.267 0.32 0.617 0.58 1.05 0.78 0.433 0.2 0.967 0.3 1.6 0.3v0h7.85c1.233 0 2.1-0.35 2.6-1.05 0.5-0.7 0.75-1.483 0.75-2.35zM22.2 25.4v0c0 0.567-0.107 1.107-0.32 1.62-0.22 0.52-0.52 0.963-0.9 1.33-0.387 0.367-0.83 0.657-1.33 0.87-0.5 0.22-1.05 0.33-1.65 0.33v0c-1.133 0-2.1-0.4-2.9-1.2-0.8-0.8-1.2-1.783-1.2-2.95v0c0-1.133 0.4-2.1 1.2-2.9 0.8-0.8 1.767-1.2 2.9-1.2v0c0.6 0 1.15 0.107 1.65 0.32 0.5 0.22 0.943 0.513 1.33 0.88 0.38 0.367 0.68 0.8 0.9 1.3 0.213 0.5 0.32 1.033 0.32 1.6zM43.25 21.85v14.15c0 0.8 0.26 1.55 0.78 2.25 0.513 0.7 1.387 1.05 2.62 1.05v0h6.25c1.233 0 2.11-0.31 2.63-0.93 0.513-0.613 0.77-1.32 0.77-2.12v0-0.55c0-1.567 0.917-2.35 2.75-2.35v0c1.833 0 2.75 0.783 2.75 2.35v0 0.6c0 1.4-0.223 2.55-0.67 3.45-0.453 0.9-1.13 1.683-2.03 2.35v0c-1.767 1.267-3.533 1.9-5.3 1.9v0h-8.4c-1.767 0-3.483-0.633-5.15-1.9v0c-0.8-0.667-1.417-1.507-1.85-2.52-0.433-1.02-0.65-2.197-0.65-3.53v0-14.25c0-2.7 0.833-4.7 2.5-6v0c0.833-0.6 1.693-1.077 2.58-1.43 0.88-0.347 1.737-0.52 2.57-0.52v0h8.4c0.8 0 1.683 0.157 2.65 0.47 0.967 0.32 1.867 0.747 2.7 1.28v0c0.8 0.567 1.443 1.35 1.93 2.35 0.48 1 0.72 2.183 0.72 3.55v0 6.75c0 0.767-0.223 1.45-0.67 2.05-0.453 0.6-1.28 0.9-2.48 0.9v0h-10.8c-1.2 0-1.833-0.783-1.9-2.35v0c0-1.567 0.633-2.35 1.9-2.35v0h8.5l-0.05-4.65c0-0.833-0.257-1.593-0.77-2.28-0.52-0.68-1.397-1.02-2.63-1.02v0h-6.25c-1.233 0-2.107 0.34-2.62 1.02-0.52 0.687-0.78 1.447-0.78 2.28zM78.85 18.6h-4.15v18.2c0 0.867 0.183 1.533 0.55 2 0.367 0.467 1.15 0.7 2.35 0.7v0h1.3c1.3 0 1.917 0.767 1.85 2.3v0c0 1.567-0.617 2.35-1.85 2.35v0h-1.65c-1.067 0-2.067-0.143-3-0.43-0.933-0.28-1.833-0.687-2.7-1.22v0 0.05c-1.633-1.067-2.45-2.967-2.45-5.7v0-18.25h-1.95c-1.2 0-1.833-0.783-1.9-2.35v0c0-1.567 0.633-2.35 1.9-2.35v0h1.95v-5.35c0-1.6 0.95-2.4 2.85-2.4v0c1.833 0 2.75 0.8 2.75 2.4v0 5.35h4.15c1.3 0 1.917 0.783 1.85 2.35v0c0 1.567-0.617 2.35-1.85 2.35zM99.2 44h-6.55c-1.033 0-2.017-0.143-2.95-0.43-0.933-0.28-1.833-0.687-2.7-1.22v0 0.05c-1.633-1.033-2.45-2.933-2.45-5.7v0-2.45c0-1.367 0.243-2.56 0.73-3.58 0.48-1.013 1.153-1.82 2.02-2.42v0h-0.05c0.833-0.567 1.717-0.993 2.65-1.28 0.933-0.28 1.833-0.42 2.7-0.42v0h11.05v-4.65c0-0.833-0.257-1.593-0.77-2.28-0.52-0.68-1.397-1.02-2.63-1.02v0h-5.85c-1.267 0-2.14 0.307-2.62 0.92-0.487 0.62-0.73 1.347-0.73 2.18v0 0.4c0 1.733-0.933 2.6-2.8 2.6v0c-1.867 0-2.8-0.867-2.8-2.6v0-0.45c0-1.367 0.243-2.517 0.73-3.45 0.48-0.933 1.137-1.717 1.97-2.35v0h-0.05c0.867-0.567 1.777-1.033 2.73-1.4 0.947-0.367 1.853-0.55 2.72-0.55v0h7.6c0.833 0 1.727 0.183 2.68 0.55 0.947 0.367 1.837 0.833 2.67 1.4v0h-0.05c0.867 0.633 1.533 1.457 2 2.47 0.467 1.02 0.7 2.197 0.7 3.53v0 20.05c0 1.6-0.917 2.4-2.75 2.4v0c-0.367 0-0.707-0.017-1.02-0.05-0.32-0.033-0.603-0.127-0.85-0.28-0.253-0.147-0.453-0.363-0.6-0.65-0.153-0.28-0.23-0.653-0.23-1.12v0l-0.05-10.95h-10.1c-0.733 0-1.3 0.083-1.7 0.25-0.4 0.167-0.717 0.433-0.95 0.8v0c-0.267 0.567-0.457 1.007-0.57 1.32-0.12 0.32-0.18 0.68-0.18 1.08v0 1.95c0 0.867 0.26 1.523 0.78 1.97 0.513 0.453 1.403 0.68 2.67 0.68v0h5.6c1.233 0 1.85 0.783 1.85 2.35v0c0 0.667-0.15 1.223-0.45 1.67-0.3 0.453-0.767 0.68-1.4 0.68zM121.1 18.6v23.3c0 1.6-0.917 2.4-2.75 2.4v0c-1.833 0-2.75-0.8-2.75-2.4v0-35.5c0-1.6 0.917-2.4 2.75-2.4v0c1.833 0 2.75 0.8 2.75 2.4v0 7.5h10.55c1.7 0 3.467 0.633 5.3 1.9v0c1.8 1.267 2.7 3.267 2.7 6v0 20.1c0 1.6-0.917 2.4-2.75 2.4v0c-1.833 0-2.75-0.8-2.75-2.4v0-19.65c0-0.867-0.267-1.7-0.8-2.5v0l0.05 0.05c-0.433-0.8-1.317-1.2-2.65-1.2v0zM170.3 16v20.05c0 1.333-0.233 2.517-0.7 3.55-0.467 1.033-1.133 1.867-2 2.5v0h0.05c-0.833 0.567-1.717 1.023-2.65 1.37-0.933 0.353-1.833 0.53-2.7 0.53v0h-8.05c-0.833 0-1.723-0.177-2.67-0.53-0.953-0.347-1.847-0.803-2.68-1.37v0h0.05c-0.867-0.633-1.533-1.467-2-2.5-0.467-1.033-0.7-2.217-0.7-3.55v0-20.05c0-1.6 0.917-2.4 2.75-2.4v0c1.833 0 2.75 0.8 2.75 2.4v0 19.65c0 0.933 0.233 1.75 0.7 2.45v0c0.433 0.8 1.333 1.2 2.7 1.2v0h6.25c1.333 0 2.217-0.4 2.65-1.2v0l-0.05 0.05c0.533-0.8 0.8-1.633 0.8-2.5v0-19.65c0-1.6 0.917-2.4 2.75-2.4v0c1.833 0 2.75 0.8 2.75 2.4zM182.05 22.25v19.65c0 1.6-0.917 2.4-2.75 2.4v0c-1.833 0-2.75-0.8-2.75-2.4v0-20.1c0-1.367 0.217-2.55 0.65-3.55 0.433-1 1.117-1.817 2.05-2.45v0c1.767-1.267 3.533-1.9 5.3-1.9v0h8.05c1.7 0 3.467 0.633 5.3 1.9v0c1.8 1.267 2.7 3.267 2.7 6v0 20.1c0 1.6-0.917 2.4-2.75 2.4v0c-1.833 0-2.75-0.8-2.75-2.4v0-19.65c0-0.867-0.267-1.7-0.8-2.5v0l0.05 0.05c-0.433-0.8-1.317-1.2-2.65-1.2v0h-6.25c-1.367 0-2.267 0.4-2.7 1.2v0c-0.467 0.7-0.7 1.517-0.7 2.45z" fill="black" fill-rule="nonzero" stroke="none" stroke-width="1" stroke-linecap="butt" stroke-linejoin="miter" stroke-miterlimit="10" stroke-dasharray="" stroke-dashoffset="0" font-family="none" font-weight="none" font-size="none" text-anchor="none" style="mix-blend-mode: normal" opacity="1"></path><path d="M24.75 79.6v-6.35c0-0.767-0.283-1.51-0.85-2.23-0.567-0.713-1.567-1.12-3-1.22v0c-0.933 1.133-2.067 1.7-3.4 1.7v0c-1.133 0-2.1-0.4-2.9-1.2-0.8-0.8-1.2-1.783-1.2-2.95v0c0-1.167 0.4-2.15 1.2-2.95 0.8-0.8 1.767-1.2 2.9-1.2v0c0.6 0 1.193 0.167 1.78 0.5 0.58 0.333 1.103 0.733 1.57 1.2v0c0.733-0.033 1.3-0.15 1.7-0.35 0.4-0.2 0.693-0.443 0.88-0.73 0.18-0.28 0.287-0.603 0.32-0.97 0.033-0.367 0.05-0.733 0.05-1.1v0-5.05c0-0.833-0.257-1.6-0.77-2.3-0.52-0.7-1.397-1.05-2.63-1.05v0h-10.45l-0.05 33c0 0.667-0.31 1.173-0.93 1.52-0.613 0.353-1.287 0.53-2.02 0.53v0c-1.967 0-2.95-0.8-2.95-2.4v0-34.7c0-1.2 0.31-2 0.93-2.4 0.613-0.4 1.353-0.6 2.22-0.6v0h14.5c0.867 0 1.793 0.167 2.78 0.5 0.98 0.333 1.903 0.783 2.77 1.35v0h-0.05c0.867 0.633 1.51 1.467 1.93 2.5 0.413 1.033 0.62 2.233 0.62 3.6v0 5.65c0 1.333-0.283 2.423-0.85 3.27-0.567 0.853-1.167 1.53-1.8 2.03v0c0.433 0.267 0.85 0.54 1.25 0.82 0.4 0.287 0.733 0.597 1 0.93v0c0.433 0.467 0.777 1.017 1.03 1.65 0.247 0.633 0.37 1.383 0.37 2.25v0 7.15c0 2.733-1.067 4.75-3.2 6.05v0c-1.067 0.667-2.073 1.167-3.02 1.5-0.953 0.333-1.897 0.5-2.83 0.5v0h-7.4c-0.567 0-1.007-0.233-1.32-0.7-0.32-0.467-0.48-1.083-0.48-1.85v0c0-1.667 0.7-2.5 2.1-2.5v0h6.85c1.233 0 2.1-0.35 2.6-1.05 0.5-0.7 0.75-1.483 0.75-2.35zM43.4 60.1v25.8c0 1.6-0.917 2.4-2.75 2.4v0c-1.867 0-2.8-0.8-2.8-2.4v0-25.8c0-1.6 0.933-2.4 2.8-2.4v0c1.833 0 2.75 0.8 2.75 2.4zM44.45 51.4v0c0 1.067-0.367 1.967-1.1 2.7-0.733 0.733-1.633 1.1-2.7 1.1v0c-1.067 0-1.973-0.367-2.72-1.1-0.753-0.733-1.13-1.633-1.13-2.7v0c0-1.1 0.377-2.017 1.13-2.75 0.747-0.733 1.653-1.1 2.72-1.1v0c1.067 0 1.967 0.367 2.7 1.1 0.733 0.733 1.1 1.65 1.1 2.75zM71.8 61.5l-15.95 18.15v6.35c0 1.567-0.917 2.35-2.75 2.35v0c-1.833 0-2.75-0.783-2.75-2.35v0-35.6c0-1.6 0.917-2.4 2.75-2.4v0c1.833 0 2.75 0.8 2.75 2.4v0 21.2c0.833-1 1.76-2.077 2.78-3.23 1.013-1.147 2.03-2.313 3.05-3.5 1.013-1.18 2.02-2.347 3.02-3.5 1-1.147 1.933-2.22 2.8-3.22v0 0.05c0.6-0.7 1.2-1.05 1.8-1.05v0c0.333 0 0.66 0.073 0.98 0.22 0.313 0.153 0.653 0.363 1.02 0.63v0h-0.05c0.8 0.667 1.2 1.333 1.2 2v0c0 0.233-0.05 0.49-0.15 0.77-0.1 0.287-0.267 0.53-0.5 0.73zM67.05 74.25l5.5 10.4c0.233 0.433 0.35 0.883 0.35 1.35v0c0 0.867-0.5 1.517-1.5 1.95v0c-0.667 0.4-1.267 0.6-1.8 0.6v0c-0.367 0-0.717-0.123-1.05-0.37-0.333-0.253-0.6-0.563-0.8-0.93v0l-5-9.65c-0.3-0.5-0.45-1-0.45-1.5v0c0-0.833 0.433-1.533 1.3-2.1v0c0.233-0.167 0.477-0.317 0.73-0.45 0.247-0.133 0.52-0.233 0.82-0.3v0c0.367-0.067 0.717 0 1.05 0.2 0.333 0.2 0.617 0.467 0.85 0.8zM85 57.9h8c0.867 0 1.76 0.183 2.68 0.55 0.913 0.367 1.803 0.833 2.67 1.4v0h-0.05c0.867 0.633 1.533 1.457 2 2.47 0.467 1.02 0.7 2.197 0.7 3.53v0 14.2c0 2.733-0.9 4.75-2.7 6.05v0c-1.767 1.267-3.533 1.9-5.3 1.9v0h-8c-0.867 0-1.75-0.15-2.65-0.45-0.9-0.3-1.783-0.783-2.65-1.45v0c-1.8-1.267-2.7-3.283-2.7-6.05v0-14.2c0-1.333 0.233-2.51 0.7-3.53 0.467-1.013 1.133-1.837 2-2.47v0h-0.05c0.833-0.567 1.717-1.033 2.65-1.4 0.933-0.367 1.833-0.55 2.7-0.55zM85.9 83.3h6.2c1.233 0 2.11-0.35 2.63-1.05 0.513-0.7 0.77-1.45 0.77-2.25v0-14.1c0-0.833-0.257-1.593-0.77-2.28-0.52-0.68-1.397-1.02-2.63-1.02v0h-6.2c-1.233 0-2.107 0.34-2.62 1.02-0.52 0.687-0.78 1.447-0.78 2.28v0 14.1c0 0.8 0.26 1.55 0.78 2.25 0.513 0.7 1.387 1.05 2.62 1.05zM112.7 65.25v20.65c0 1.6-0.917 2.4-2.75 2.4v0c-1.9 0-2.85-0.8-2.85-2.4v0-20.7c0-2.733 0.817-4.633 2.45-5.7v0c1.633-1.067 3.517-1.6 5.65-1.6v0h5.7c1.233 0 1.85 0.783 1.85 2.35v0c0.067 1.567-0.55 2.35-1.85 2.35v0h-5.3c-1.2 0-1.983 0.233-2.35 0.7-0.367 0.467-0.55 1.117-0.55 1.95zM141.1 88h-6.55c-1.033 0-2.017-0.143-2.95-0.43-0.933-0.28-1.833-0.687-2.7-1.22v0 0.05c-1.633-1.033-2.45-2.933-2.45-5.7v0-2.45c0-1.367 0.24-2.56 0.72-3.58 0.487-1.013 1.163-1.82 2.03-2.42v0h-0.05c0.833-0.567 1.717-0.993 2.65-1.28 0.933-0.28 1.833-0.42 2.7-0.42v0h11.05v-4.65c0-0.833-0.257-1.593-0.77-2.28-0.52-0.68-1.397-1.02-2.63-1.02v0h-5.85c-1.267 0-2.14 0.307-2.62 0.92-0.487 0.62-0.73 1.347-0.73 2.18v0 0.4c0 1.733-0.933 2.6-2.8 2.6v0c-1.867 0-2.8-0.867-2.8-2.6v0-0.45c0-1.367 0.24-2.517 0.72-3.45 0.487-0.933 1.147-1.717 1.98-2.35v0h-0.05c0.867-0.567 1.773-1.033 2.72-1.4 0.953-0.367 1.863-0.55 2.73-0.55v0h7.6c0.833 0 1.723 0.183 2.67 0.55 0.953 0.367 1.847 0.833 2.68 1.4v0h-0.05c0.867 0.633 1.533 1.457 2 2.47 0.467 1.02 0.7 2.197 0.7 3.53v0 20.05c0 1.6-0.917 2.4-2.75 2.4v0c-0.367 0-0.707-0.017-1.02-0.05-0.32-0.033-0.603-0.127-0.85-0.28-0.253-0.147-0.457-0.363-0.61-0.65-0.147-0.28-0.22-0.653-0.22-1.12v0l-0.05-10.95h-10.1c-0.733 0-1.3 0.083-1.7 0.25-0.4 0.167-0.717 0.433-0.95 0.8v0c-0.267 0.567-0.46 1.007-0.58 1.32-0.113 0.32-0.17 0.68-0.17 1.08v0 1.95c0 0.867 0.257 1.523 0.77 1.97 0.52 0.453 1.413 0.68 2.68 0.68v0h5.6c1.233 0 1.85 0.783 1.85 2.35v0c0 0.667-0.15 1.223-0.45 1.67-0.3 0.453-0.767 0.68-1.4 0.68z" fill="black" fill-rule="nonzero" stroke="none" stroke-width="1" stroke-linecap="butt" stroke-linejoin="miter" stroke-miterlimit="10" stroke-dasharray="" stroke-dashoffset="0" font-family="none" font-weight="none" font-size="none" text-anchor="none" style="mix-blend-mode: normal" opacity="1"></path></g></svg></g></svg></g><g transform="matrix(1,0,0,1,0,145.4681615847383)"><svg viewBox="0 0 133.65034264942753 9.269164737754709" height="9.269164737754709" width="133.65034264942753"><g transform="matrix(1,0,0,1,0,0)"><svg width="133.65034264942753" viewBox="0.4 -39.65 728.0500000000001 50.5" height="9.269164737754709" data-palette-color="#000000"><path d="M0.4-34.55L21.95-34.55 21.25-29.55 14.15-29.55 14.15 0 7.8 0 7.8-29.55 0.4-29.55 0.4-34.55ZM37.2-27.15Q40.05-27.15 41.7-25.1 43.35-23.05 43.35-19.6L43.35-19.6 43.35 0 37.2 0 37.2-18.9Q37.2-20.8 36.67-21.63 36.15-22.45 35.15-22.45L35.15-22.45Q33.05-22.45 31-18.5L31-18.5 31 0 24.85 0 24.85-37 31-37.65 31-23.3Q32.25-25.25 33.72-26.2 35.2-27.15 37.2-27.15L37.2-27.15ZM60.55-27.1Q61.7-27.1 62.59-26.75L62.59-26.75 61.59-20.85Q60.59-21.1 59.75-21.1L59.75-21.1Q57.84-21.1 56.75-19.45 55.65-17.8 55.05-14.55L55.05-14.55 55.05 0 48.9 0 48.9-26.45 54.25-26.45 54.7-21.85Q56.55-27.1 60.55-27.1L60.55-27.1ZM65.44-26.45L71.59-26.45 71.59 0 65.44 0 65.44-26.45ZM68.49-39.65Q70.14-39.65 71.17-38.6 72.19-37.55 72.19-35.9L72.19-35.9Q72.19-34.3 71.17-33.25 70.14-32.2 68.49-32.2L68.49-32.2Q66.84-32.2 65.82-33.25 64.79-34.3 64.79-35.9L64.79-35.9Q64.79-37.55 65.82-38.6 66.84-39.65 68.49-39.65L68.49-39.65ZM89.69-26.45L95.74-26.45 88.84 0 81.59 0 74.49-26.45 80.84-26.45 85.19-4.95 89.69-26.45ZM98.64-26.45L104.79-26.45 104.79 0 98.64 0 98.64-26.45ZM101.69-39.65Q103.34-39.65 104.36-38.6 105.39-37.55 105.39-35.9L105.39-35.9Q105.39-34.3 104.36-33.25 103.34-32.2 101.69-32.2L101.69-32.2Q100.04-32.2 99.01-33.25 97.99-34.3 97.99-35.9L97.99-35.9Q97.99-37.55 99.01-38.6 100.04-39.65 101.69-39.65L101.69-39.65ZM122.83-27.15Q125.68-27.15 127.33-25.1 128.98-23.05 128.98-19.6L128.98-19.6 128.98 0 122.83 0 122.83-18.9Q122.83-20.8 122.31-21.63 121.78-22.45 120.78-22.45L120.78-22.45Q118.68-22.45 116.63-18.5L116.63-18.5 116.63 0 110.48 0 110.48-26.45 115.83-26.45 116.28-23Q117.63-25.1 119.16-26.13 120.68-27.15 122.83-27.15L122.83-27.15ZM152.48-29.85L154.03-25.1Q152.98-24.6 151.51-24.4 150.03-24.2 147.83-24.2L147.83-24.2Q149.93-23.2 150.96-21.53 151.98-19.85 151.98-17.4L151.98-17.4Q151.98-13.4 149.53-10.95 147.08-8.5 142.88-8.5L142.88-8.5Q141.63-8.5 140.33-8.9L140.33-8.9Q139.43-8.15 139.43-6.85L139.43-6.85Q139.43-5.85 139.98-5.35 140.53-4.85 142.03-4.85L142.03-4.85 144.83-4.85Q148.83-4.85 151.18-2.78 153.53-0.7 153.53 2.5L153.53 2.5Q153.53 6.3 150.61 8.58 147.68 10.85 142.28 10.85L142.28 10.85Q136.58 10.85 134.31 8.75 132.03 6.65 132.03 2.6L132.03 2.6 137.48 2.6Q137.48 4.75 138.48 5.65 139.48 6.55 142.33 6.55L142.33 6.55Q145.08 6.55 146.23 5.6 147.38 4.65 147.38 2.9L147.38 2.9Q147.38 1.2 146.43 0.4 145.48-0.4 143.48-0.4L143.48-0.4 141.58-0.4Q137.78-0.4 136.03-1.75 134.28-3.1 134.28-5.45L134.28-5.45Q134.28-6.8 135.01-8.03 135.73-9.25 136.98-10.2L136.98-10.2Q134.93-11.5 133.98-13.3 133.03-15.1 133.03-17.7L133.03-17.7Q133.03-22.05 135.63-24.58 138.23-27.1 142.63-27.1L142.63-27.1Q145.88-27.1 148.01-27.8 150.13-28.5 152.48-29.85L152.48-29.85ZM142.63-23Q140.88-23 139.98-21.75 139.08-20.5 139.08-17.8L139.08-17.8Q139.08-15.25 139.98-13.88 140.88-12.5 142.58-12.5L142.58-12.5Q144.33-12.5 145.18-13.73 146.03-14.95 146.03-17.85L146.03-17.85Q146.03-20.55 145.21-21.78 144.38-23 142.63-23L142.63-23ZM176.33-33.05Q174.93-33.05 174.25-32.3 173.58-31.55 173.58-30L173.58-30 173.58-26.45 178.63-26.45 177.93-22 173.58-22 173.58 0 167.43 0 167.43-22 164.13-22 164.13-26.45 167.43-26.45 167.43-29.8Q167.43-33.4 169.53-35.55 171.63-37.7 175.53-37.7L175.53-37.7Q178.58-37.7 181.43-36.2L181.43-36.2 179.73-32.2Q177.98-33.05 176.33-33.05L176.33-33.05ZM190.83-27.15Q195.83-27.15 198.6-23.65 201.38-20.15 201.38-13.25L201.38-13.25Q201.38-6.65 198.58-2.95 195.78 0.75 190.83 0.75L190.83 0.75Q185.88 0.75 183.08-2.88 180.28-6.5 180.28-13.25L180.28-13.25Q180.28-19.95 183.08-23.55 185.88-27.15 190.83-27.15L190.83-27.15ZM190.83-22.5Q188.68-22.5 187.68-20.38 186.68-18.25 186.68-13.25L186.68-13.25Q186.68-8.2 187.68-6.08 188.68-3.95 190.83-3.95L190.83-3.95Q192.98-3.95 193.98-6.08 194.98-8.2 194.98-13.25L194.98-13.25Q194.98-18.3 193.98-20.4 192.98-22.5 190.83-22.5L190.83-22.5ZM217.57-27.1Q218.72-27.1 219.62-26.75L219.62-26.75 218.62-20.85Q217.62-21.1 216.77-21.1L216.77-21.1Q214.87-21.1 213.77-19.45 212.67-17.8 212.07-14.55L212.07-14.55 212.07 0 205.92 0 205.92-26.45 211.27-26.45 211.72-21.85Q213.57-27.1 217.57-27.1L217.57-27.1ZM232.47-34.55L249.62-34.55 248.97-29.8 238.82-29.8 238.82-19.9 247.67-19.9 247.67-15.2 238.82-15.2 238.82-4.8 249.62-4.8 249.62 0 232.47 0 232.47-34.55ZM271.42-26.45L265.32-14.15 272.47 0 265.97 0 261.57-10.65 257.27 0 250.92 0 258.07-13.95 251.62-26.45 258.02-26.45 261.67-17.25 265.22-26.45 271.42-26.45ZM284.66-27.15Q286.81-27.15 288.56-26.43 290.31-25.7 291.91-24.15L291.91-24.15 289.26-20.65Q288.16-21.55 287.19-21.98 286.21-22.4 285.06-22.4L285.06-22.4Q282.81-22.4 281.66-20.28 280.51-18.15 280.51-13.1L280.51-13.1Q280.51-8.2 281.69-6.2 282.86-4.2 285.06-4.2L285.06-4.2Q286.16-4.2 287.06-4.6 287.96-5 289.16-5.85L289.16-5.85 291.91-2.3Q288.71 0.75 284.76 0.75L284.76 0.75Q279.66 0.75 276.84-2.73 274.01-6.2 274.01-13L274.01-13Q274.01-17.4 275.31-20.6 276.61-23.8 279.04-25.48 281.46-27.15 284.66-27.15L284.66-27.15ZM313.81-13.85Q313.81-13.4 313.66-11.3L313.66-11.3 300.01-11.3Q300.21-7.2 301.44-5.58 302.66-3.95 304.91-3.95L304.91-3.95Q306.46-3.95 307.71-4.48 308.96-5 310.41-6.15L310.41-6.15 312.96-2.65Q309.46 0.75 304.56 0.75L304.56 0.75Q299.36 0.75 296.59-2.85 293.81-6.45 293.81-13L293.81-13Q293.81-19.55 296.46-23.35 299.11-27.15 303.96-27.15L303.96-27.15Q308.61-27.15 311.21-23.78 313.81-20.4 313.81-13.85L313.81-13.85ZM307.81-15.3L307.81-15.65Q307.81-19.4 306.91-21.13 306.01-22.85 304.01-22.85L304.01-22.85Q302.16-22.85 301.19-21.18 300.21-19.5 300.01-15.3L300.01-15.3 307.81-15.3ZM323.71 0.75Q321.01 0.75 319.43-0.93 317.86-2.6 317.86-5.4L317.86-5.4 317.86-37.05 324.01-37.7 324.01-5.65Q324.01-5 324.31-4.6 324.61-4.2 325.21-4.2L325.21-4.2Q325.56-4.2 325.88-4.3 326.21-4.4 326.31-4.4L326.31-4.4 327.51-0.2Q325.81 0.75 323.71 0.75L323.71 0.75ZM336.16 0.75Q333.46 0.75 331.88-0.93 330.31-2.6 330.31-5.4L330.31-5.4 330.31-37.05 336.46-37.7 336.46-5.65Q336.46-5 336.76-4.6 337.06-4.2 337.66-4.2L337.66-4.2Q338.01-4.2 338.33-4.3 338.66-4.4 338.76-4.4L338.76-4.4 339.96-0.2Q338.26 0.75 336.16 0.75L336.16 0.75ZM361.85-13.85Q361.85-13.4 361.7-11.3L361.7-11.3 348.05-11.3Q348.25-7.2 349.48-5.58 350.7-3.95 352.95-3.95L352.95-3.95Q354.5-3.95 355.75-4.48 357-5 358.45-6.15L358.45-6.15 361-2.65Q357.5 0.75 352.6 0.75L352.6 0.75Q347.4 0.75 344.63-2.85 341.85-6.45 341.85-13L341.85-13Q341.85-19.55 344.5-23.35 347.15-27.15 352-27.15L352-27.15Q356.65-27.15 359.25-23.78 361.85-20.4 361.85-13.85L361.85-13.85ZM355.85-15.3L355.85-15.65Q355.85-19.4 354.95-21.13 354.05-22.85 352.05-22.85L352.05-22.85Q350.2-22.85 349.23-21.18 348.25-19.5 348.05-15.3L348.05-15.3 355.85-15.3ZM378.5-27.15Q381.35-27.15 383-25.1 384.65-23.05 384.65-19.6L384.65-19.6 384.65 0 378.5 0 378.5-18.9Q378.5-20.8 377.98-21.63 377.45-22.45 376.45-22.45L376.45-22.45Q374.35-22.45 372.3-18.5L372.3-18.5 372.3 0 366.15 0 366.15-26.45 371.5-26.45 371.95-23Q373.3-25.1 374.82-26.13 376.35-27.15 378.5-27.15L378.5-27.15ZM399.7-27.15Q401.85-27.15 403.6-26.43 405.35-25.7 406.95-24.15L406.95-24.15 404.3-20.65Q403.2-21.55 402.22-21.98 401.25-22.4 400.1-22.4L400.1-22.4Q397.85-22.4 396.7-20.28 395.55-18.15 395.55-13.1L395.55-13.1Q395.55-8.2 396.72-6.2 397.9-4.2 400.1-4.2L400.1-4.2Q401.2-4.2 402.1-4.6 403-5 404.2-5.85L404.2-5.85 406.95-2.3Q403.75 0.75 399.8 0.75L399.8 0.75Q394.7 0.75 391.87-2.73 389.05-6.2 389.05-13L389.05-13Q389.05-17.4 390.35-20.6 391.65-23.8 394.07-25.48 396.5-27.15 399.7-27.15L399.7-27.15ZM428.85-13.85Q428.85-13.4 428.7-11.3L428.7-11.3 415.05-11.3Q415.25-7.2 416.47-5.58 417.7-3.95 419.95-3.95L419.95-3.95Q421.5-3.95 422.75-4.48 424-5 425.45-6.15L425.45-6.15 428-2.65Q424.5 0.75 419.6 0.75L419.6 0.75Q414.4 0.75 411.62-2.85 408.85-6.45 408.85-13L408.85-13Q408.85-19.55 411.5-23.35 414.15-27.15 419-27.15L419-27.15Q423.65-27.15 426.25-23.78 428.85-20.4 428.85-13.85L428.85-13.85ZM422.85-15.3L422.85-15.65Q422.85-19.4 421.95-21.13 421.05-22.85 419.05-22.85L419.05-22.85Q417.2-22.85 416.22-21.18 415.25-19.5 415.05-15.3L415.05-15.3 422.85-15.3ZM435.54-7.05Q437.14-7.05 438.17-5.98 439.19-4.9 439.19-3.25L439.19-3.25Q439.19-2.55 438.97-1.78 438.74-1 438.39-0.08 438.04 0.85 437.94 1.2L437.94 1.2 435.29 8.55 431.84 8.55 433.64 0.1Q431.84-1.2 431.84-3.2L431.84-3.2Q431.84-4.85 432.89-5.95 433.94-7.05 435.54-7.05L435.54-7.05ZM467.64-18.3Q470.99-17.55 472.91-15.63 474.84-13.7 474.84-9.9L474.84-9.9Q474.84-4.9 471.46-2.45 468.09 0 462.29 0L462.29 0 453.59 0 453.59-34.55 461.14-34.55Q467.09-34.55 470.34-32.3 473.59-30.05 473.59-25.75L473.59-25.75Q473.59-22.85 471.96-20.95 470.34-19.05 467.64-18.3L467.64-18.3ZM461.79-29.85L459.94-29.85 459.94-20.3 462.09-20.3Q467.14-20.3 467.14-25.2L467.14-25.2Q467.14-27.65 465.86-28.75 464.59-29.85 461.79-29.85L461.79-29.85ZM462.34-4.8Q465.24-4.8 466.74-6.03 468.24-7.25 468.24-10.15L468.24-10.15Q468.24-13.05 466.84-14.43 465.44-15.8 462.49-15.8L462.49-15.8 459.94-15.8 459.94-4.8 462.34-4.8ZM497.69-13.85Q497.69-13.4 497.54-11.3L497.54-11.3 483.88-11.3Q484.09-7.2 485.31-5.58 486.54-3.95 488.79-3.95L488.79-3.95Q490.34-3.95 491.59-4.48 492.84-5 494.29-6.15L494.29-6.15 496.84-2.65Q493.34 0.75 488.44 0.75L488.44 0.75Q483.24 0.75 480.46-2.85 477.69-6.45 477.69-13L477.69-13Q477.69-19.55 480.34-23.35 482.99-27.15 487.84-27.15L487.84-27.15Q492.49-27.15 495.09-23.78 497.69-20.4 497.69-13.85L497.69-13.85ZM491.69-15.3L491.69-15.65Q491.69-19.4 490.79-21.13 489.88-22.85 487.88-22.85L487.88-22.85Q486.04-22.85 485.06-21.18 484.09-19.5 483.88-15.3L483.88-15.3 491.69-15.3ZM520.63-26.45L513.63 0.1Q512.33 4.9 509.43 7.65 506.53 10.4 501.68 10.85L501.68 10.85 500.98 6.5Q504.13 5.85 505.71 4.42 507.28 3 508.18 0L508.18 0 505.88 0 499.18-26.45 505.43-26.45 509.83-4.1 514.53-26.45 520.63-26.45ZM532.93-27.15Q537.93-27.15 540.7-23.65 543.48-20.15 543.48-13.25L543.48-13.25Q543.48-6.65 540.68-2.95 537.88 0.75 532.93 0.75L532.93 0.75Q527.98 0.75 525.18-2.88 522.38-6.5 522.38-13.25L522.38-13.25Q522.38-19.95 525.18-23.55 527.98-27.15 532.93-27.15L532.93-27.15ZM532.93-22.5Q530.78-22.5 529.78-20.38 528.78-18.25 528.78-13.25L528.78-13.25Q528.78-8.2 529.78-6.08 530.78-3.95 532.93-3.95L532.93-3.95Q535.08-3.95 536.08-6.08 537.08-8.2 537.08-13.25L537.08-13.25Q537.08-18.3 536.08-20.4 535.08-22.5 532.93-22.5L532.93-22.5ZM560.38-27.15Q563.23-27.15 564.88-25.1 566.53-23.05 566.53-19.6L566.53-19.6 566.53 0 560.38 0 560.38-18.9Q560.38-20.8 559.85-21.63 559.33-22.45 558.33-22.45L558.33-22.45Q556.23-22.45 554.18-18.5L554.18-18.5 554.18 0 548.03 0 548.03-26.45 553.38-26.45 553.83-23Q555.18-25.1 556.7-26.13 558.23-27.15 560.38-27.15L560.38-27.15ZM585.02-37.7L591.17-37.05 591.17 0 585.72 0 585.42-3.05Q583.07 0.75 579.37 0.75L579.37 0.75Q575.27 0.75 573.1-2.93 570.92-6.6 570.92-13.2L570.92-13.2Q570.92-17.4 572.05-20.58 573.17-23.75 575.17-25.45 577.17-27.15 579.77-27.15L579.77-27.15Q582.97-27.15 585.02-24.5L585.02-24.5 585.02-37.7ZM581.12-3.9Q582.27-3.9 583.2-4.7 584.12-5.5 585.02-7L585.02-7 585.02-19.85Q583.42-22.55 581.37-22.55L581.37-22.55Q577.32-22.55 577.32-13.25L577.32-13.25Q577.32-8.2 578.32-6.05 579.32-3.9 581.12-3.9L581.12-3.9ZM606.87-34.55L613.22-34.55 613.22-5.25 624.37-5.25 623.67 0 606.87 0 606.87-34.55ZM627.57-26.45L633.72-26.45 633.72 0 627.57 0 627.57-26.45ZM630.62-39.65Q632.27-39.65 633.29-38.6 634.32-37.55 634.32-35.9L634.32-35.9Q634.32-34.3 633.29-33.25 632.27-32.2 630.62-32.2L630.62-32.2Q628.97-32.2 627.94-33.25 626.92-34.3 626.92-35.9L626.92-35.9Q626.92-37.55 627.94-38.6 628.97-39.65 630.62-39.65L630.62-39.65ZM663.06-27.15Q665.71-27.15 667.31-25.1 668.91-23.05 668.91-19.6L668.91-19.6 668.91 0 662.86 0 662.86-18.95Q662.86-20.85 662.36-21.68 661.86-22.5 660.91-22.5L660.91-22.5Q658.96-22.5 657.16-18.8L657.16-18.8 657.16 0 651.16 0 651.16-18.95Q651.16-22.5 649.26-22.5L649.26-22.5Q647.21-22.5 645.46-18.8L645.46-18.8 645.46 0 639.41 0 639.41-26.45 644.76-26.45 645.16-23.05Q647.76-27.15 651.41-27.15L651.41-27.15Q653.26-27.15 654.61-26 655.96-24.85 656.66-22.75L656.66-22.75Q659.31-27.15 663.06-27.15L663.06-27.15ZM674.41-26.45L680.56-26.45 680.56 0 674.41 0 674.41-26.45ZM677.46-39.65Q679.11-39.65 680.14-38.6 681.16-37.55 681.16-35.9L681.16-35.9Q681.16-34.3 680.14-33.25 679.11-32.2 677.46-32.2L677.46-32.2Q675.81-32.2 674.79-33.25 673.76-34.3 673.76-35.9L673.76-35.9Q673.76-37.55 674.79-38.6 675.81-39.65 677.46-39.65L677.46-39.65ZM697.41-5L699.56-1.2Q697.11 0.75 693.81 0.75L693.81 0.75Q690.36 0.75 688.56-1.23 686.76-3.2 686.76-6.6L686.76-6.6 686.76-22 683.66-22 683.66-26.45 686.76-26.45 686.76-32.3 692.91-33.05 692.91-26.45 697.91-26.45 697.31-22 692.91-22 692.91-6.6Q692.91-4.2 694.96-4.2L694.96-4.2Q695.61-4.2 696.11-4.38 696.61-4.55 697.41-5L697.41-5ZM709.46-27.15Q714.16-27.15 717.41-24.05L717.41-24.05 715.06-20.7Q713.66-21.7 712.41-22.2 711.16-22.7 709.86-22.7L709.86-22.7Q708.41-22.7 707.58-21.93 706.76-21.15 706.76-19.8L706.76-19.8Q706.76-18.45 707.68-17.63 708.61-16.8 711.41-15.7L711.41-15.7Q714.86-14.35 716.51-12.5 718.16-10.65 718.16-7.55L718.16-7.55Q718.16-3.7 715.46-1.48 712.76 0.75 708.61 0.75L708.61 0.75Q705.91 0.75 703.63-0.23 701.36-1.2 699.66-2.95L699.66-2.95 702.66-6.25Q705.46-3.8 708.36-3.8L708.36-3.8Q710.01-3.8 710.96-4.67 711.91-5.55 711.91-7.1L711.91-7.1Q711.91-8.25 711.51-8.97 711.11-9.7 710.11-10.33 709.11-10.95 707.11-11.7L707.11-11.7Q703.66-13.05 702.18-14.85 700.71-16.65 700.71-19.45L700.71-19.45Q700.71-22.8 703.08-24.98 705.46-27.15 709.46-27.15L709.46-27.15ZM721.35-34.55L727.9-34.55 727.05-12.1 722.2-12.1 721.35-34.55ZM724.65-7.05Q726.3-7.05 727.38-5.9 728.45-4.75 728.45-3.15L728.45-3.15Q728.45-1.55 727.38-0.4 726.3 0.75 724.65 0.75L724.65 0.75Q723 0.75 721.93-0.4 720.85-1.55 720.85-3.15L720.85-3.15Q720.85-4.75 721.93-5.9 723-7.05 724.65-7.05L724.65-7.05Z" opacity="1" transform="matrix(1,0,0,1,0,0)" fill="black" class="slogan-text-1" id="SvgjsPath2139"></path></svg></g></svg></g></svg></g></svg></g><g></g></svg></g></svg></g></svg></g></svg></g><defs><mask></mask></defs></svg><rect width="342.8515585177538" height="342.8515585177538" fill="black" stroke="none" visibility="hidden"></rect></g></mask><linearGradient x1="0.054" x2="0.941" y1="0.5" y2="0.5" id="f95937c7-16a7-4a71-883c-7572c868ec62"><stop stop-color="#9c7945" offset="0"></stop><stop stop-color="#faf3aa" offset="0.498"></stop><stop stop-color="#9c7945" offset="1"></stop></linearGradient></svg><rect width="342.8515585177538" height="342.8515585177538" fill="none" stroke="none" visibility="hidden"></rect></g></svg></g></svg>